<?xml version="1.0" encoding="UTF-8" standalone="no"?>
<!-- Created with Inkscape (http://www.inkscape.org/) -->

<svg
   xmlns:dc="http://purl.org/dc/elements/1.1/"
   xmlns:cc="http://creativecommons.org/ns#"
   xmlns:rdf="http://www.w3.org/1999/02/22-rdf-syntax-ns#"
   xmlns:svg="http://www.w3.org/2000/svg"
   xmlns="http://www.w3.org/2000/svg"
   xmlns:sodipodi="http://sodipodi.sourceforge.net/DTD/sodipodi-0.dtd"
   xmlns:inkscape="http://www.inkscape.org/namespaces/inkscape"
   width="100mm"
   height="100mm"
   viewBox="0 0 100 100"
   version="1.1"
   id="svg10056"
   inkscape:version="0.92.3 (2405546, 2018-03-11)"
   sodipodi:docname="newly_updated_ltrain_icon.svg">
  <defs
     id="defs10050" />
  <sodipodi:namedview
     id="base"
     pagecolor="#ffffff"
     bordercolor="#666666"
     borderopacity="1.0"
     inkscape:pageopacity="0.0"
     inkscape:pageshadow="2"
     inkscape:zoom="0.5"
     inkscape:cx="-153.73434"
     inkscape:cy="594.83323"
     inkscape:document-units="mm"
     inkscape:current-layer="layer1"
     showgrid="false"
     inkscape:window-width="1920"
     inkscape:window-height="1111"
     inkscape:window-x="-9"
     inkscape:window-y="-9"
     inkscape:window-maximized="1" />
  <metadata
     id="metadata10053">
    <rdf:RDF>
      <cc:Work
         rdf:about="">
        <dc:format>image/svg+xml</dc:format>
        <dc:type
           rdf:resource="http://purl.org/dc/dcmitype/StillImage" />
        <dc:title></dc:title>
      </cc:Work>
    </rdf:RDF>
  </metadata>
  <g
     inkscape:label="Layer 1"
     inkscape:groupmode="layer"
     id="layer1"
     transform="translate(0,-197)">
    <g
       transform="matrix(1.1570333,0,0,1.1570333,-151.59917,-562.86837)"
       id="g10722">
      <g
         id="g6237">
        <path
           style="clip-rule:evenodd;fill-rule:evenodd"
           inkscape:connector-curvature="0"
           id="path6223"
           d="m 200.548,665.014 -26.309,-0.022 -26.249,-0.023 c -4.794,0 -8.677,3.918 -8.677,8.746 l -0.059,52.44 c 0,4.828 3.884,8.746 8.677,8.746 l 26.308,0.023 26.249,0.012 c 4.793,0.012 8.688,-3.896 8.688,-8.722 l 0.046,-52.442 c 0.001,-4.828 -3.883,-8.747 -8.674,-8.758 z m 6.891,61.2 c 0,3.87 -3.114,6.995 -6.951,6.995 l -26.249,-0.023 -26.308,-0.034 c -3.837,0 -6.938,-3.125 -6.938,-6.997 l 0.047,-52.44 c 0,-3.86 3.126,-6.985 6.95,-6.985 l 26.249,0.022 26.309,0.024 c 3.836,0 6.949,3.147 6.949,6.996 z" />
        <g
           id="g6235">
          <path
             style="clip-rule:evenodd;fill-rule:evenodd"
             inkscape:connector-curvature="0"
             id="path6225"
             d="m 155.185,711.543 0.14,0.408 0.233,0.35 0.293,0.339 0.337,0.291 0.362,0.292 0.408,0.232 0.454,0.234 0.922,0.303 0.909,0.209 0.897,0.059 0.198,-0.035 0.175,-0.023 0.339,-0.058 v -6.6 h 1.818 2.473 9.119 0.268 9.178 2.624 1.399 v 6.657 l 0.338,0.082 0.374,0.035 h 0.104 0.315 l 0.467,-0.059 0.908,-0.175 0.922,-0.35 0.466,-0.198 0.396,-0.27 0.373,-0.279 0.339,-0.291 0.292,-0.339 0.232,-0.35 0.14,-0.407 0.081,-0.396 2.007,-18.717 -1.772,-16.489 -0.151,-0.757 -0.198,-0.688 -0.257,-0.642 -0.339,-0.596 -0.431,-0.559 -0.548,-0.49 -0.63,-0.432 -0.746,-0.373 -0.969,-0.433 -0.897,-0.313 -0.104,-0.035 -1.003,-0.303 -1.004,-0.292 -0.104,-0.023 -1.936,-0.384 -0.688,-0.094 -1.34,-0.198 -2.029,-0.198 -2.042,-0.117 -3.767,-0.14 -0.268,-0.012 -4.069,0.151 -2.041,0.117 -2.007,0.198 -1.002,0.151 -1.026,0.141 -1.003,0.174 -0.443,0.094 -0.56,0.14 -0.967,0.292 -0.806,0.245 -0.198,0.058 -1.003,0.349 -0.979,0.433 -0.746,0.373 -0.629,0.432 -0.537,0.49 -0.432,0.559 -0.35,0.596 -0.28,0.642 -0.176,0.688 -0.139,0.757 -1.772,16.454 1.994,18.693 z m 30.529,-10.763 -0.127,0.373 -0.188,0.325 -0.244,0.292 -0.293,0.245 -0.349,0.187 -0.374,0.116 -0.432,0.047 -0.396,-0.047 -0.385,-0.116 -0.338,-0.187 -0.327,-0.245 -0.245,-0.292 -0.186,-0.325 -0.094,-0.373 -0.058,-0.409 0.058,-0.407 0.094,-0.362 0.186,-0.361 0.245,-0.292 0.327,-0.245 0.338,-0.186 0.385,-0.105 0.396,-0.059 0.432,0.059 0.374,0.105 0.349,0.186 0.293,0.245 0.244,0.292 0.188,0.361 0.127,0.362 0.035,0.407 z m 4.805,0 -0.116,0.373 -0.187,0.325 -0.244,0.292 -0.316,0.245 -0.314,0.187 -0.407,0.116 -0.386,0.047 h -0.023 l -0.396,-0.047 -0.372,-0.116 -0.351,-0.187 -0.291,-0.245 -0.269,-0.292 -0.198,-0.325 -0.094,-0.373 -0.035,-0.409 0.035,-0.407 0.094,-0.362 0.198,-0.361 0.269,-0.292 0.291,-0.245 0.351,-0.186 0.372,-0.105 0.396,-0.059 h 0.023 l 0.386,0.059 0.407,0.105 0.314,0.186 0.316,0.245 0.244,0.292 0.187,0.361 0.116,0.362 0.047,0.407 z m -10.077,-24.185 0.035,-0.245 0.095,-0.269 0.139,-0.245 0.198,-0.245 0.175,-0.187 0.223,-0.162 0.232,-0.106 0.21,-0.034 h 1.959 2.624 2.216 0.537 l 0.384,0.058 0.233,0.083 0.245,0.127 0.269,0.222 0.21,0.279 0.163,0.339 0.081,0.432 1.505,15.16 0.047,0.513 -0.082,0.385 -0.163,0.268 -0.21,0.188 -0.244,0.104 -0.258,0.059 -0.431,0.022 h -2.286 -2.216 -2.624 -1.877 l -0.315,-0.104 -0.291,-0.186 -0.222,-0.188 -0.175,-0.21 -0.256,-0.467 -0.13,-0.384 z m -10.214,-2.927 h 4.303 4.315 v 29.351 h -4.315 -4.303 z m -7.929,27.089 -0.095,0.372 -0.197,0.35 -0.232,0.292 -0.305,0.245 -0.349,0.187 -0.362,0.116 -0.407,0.047 h -0.013 l -0.407,-0.047 -0.386,-0.116 -0.349,-0.187 -0.293,-0.245 -0.231,-0.292 -0.188,-0.35 -0.116,-0.372 -0.046,-0.409 0.046,-0.396 0.116,-0.385 0.188,-0.35 0.231,-0.292 0.293,-0.256 0.349,-0.176 0.386,-0.14 0.407,-0.022 h 0.013 l 0.407,0.022 0.362,0.14 0.349,0.176 0.305,0.256 0.232,0.292 0.197,0.35 0.095,0.385 0.058,0.396 z m 4.768,0 -0.105,0.372 -0.197,0.35 -0.233,0.292 -0.291,0.245 -0.327,0.187 -0.374,0.116 -0.396,0.047 -0.408,-0.047 -0.373,-0.116 -0.35,-0.187 -0.292,-0.245 -0.244,-0.292 -0.175,-0.35 -0.117,-0.372 -0.023,-0.409 0.023,-0.396 0.117,-0.385 0.175,-0.35 0.244,-0.292 0.292,-0.256 0.35,-0.176 0.373,-0.14 0.408,-0.022 0.396,0.022 0.374,0.14 0.327,0.176 0.291,0.256 0.233,0.292 0.197,0.35 0.105,0.385 0.047,0.396 z m -10.226,-9.353 1.644,-14.706 0.105,-0.536 0.175,-0.408 0.222,-0.303 0.245,-0.175 0.21,-0.141 0.152,-0.058 0.139,-0.023 h 0.606 2.332 2.473 1.901 l 0.232,0.023 0.245,0.081 0.245,0.129 0.245,0.163 0.198,0.198 0.163,0.233 0.116,0.245 0.046,0.303 v 15.568 l -0.104,0.291 -0.105,0.245 -0.164,0.186 -0.15,0.188 -0.222,0.141 -0.245,0.104 -0.561,0.186 h -1.842 -2.473 -2.332 -1.666 l -0.351,-0.022 -0.351,-0.082 -0.349,-0.151 -0.305,-0.198 -0.232,-0.268 -0.164,-0.351 -0.104,-0.408 z" />
          <rect
             style="clip-rule:evenodd;fill-rule:evenodd"
             id="rect6227"
             height="2.4489999"
             width="16.733999"
             y="712.49902"
             x="166.10001" />
          <path
             style="clip-rule:evenodd;fill-rule:evenodd"
             inkscape:connector-curvature="0"
             id="path6229"
             d="m 192.699,726.854 -2.368,-2.694 h 5.038 l -2.565,-2.787 h -4.921 l -1.364,-1.633 h -2.577 l 0.979,1.633 h -10.507 -10.472 l 0.991,-1.644 -2.508,0.011 -1.41,1.633 h -5.41 l -2.636,2.834 h 5.586 l -2.31,2.647 h -5.458 l -3.626,3.999 5.621,-0.011 -1.47,1.69 h 5.854 l 1.026,-1.69 16.221,-0.024 16.198,-0.022 1.119,1.866 h 6.063 l -1.644,-1.879 h 5.177 l -3.731,-3.929 z m -18.285,0 h -13.807 l 1.61,-2.659 12.196,-0.012 12.197,-0.012 1.622,2.683 z" />
          <rect
             style="clip-rule:evenodd;fill-rule:evenodd"
             id="rect6231"
             height="10.763"
             width="2.2980001"
             y="708.336"
             x="162.55499" />
          <rect
             style="clip-rule:evenodd;fill-rule:evenodd"
             id="rect6233"
             height="10.763"
             width="2.296"
             y="708.336"
             x="183.896" />
        </g>
      </g>
    </g>
  </g>
</svg>
