<?xml version="1.0" encoding="UTF-8" standalone="no"?>
<!-- Created with Inkscape (http://www.inkscape.org/) -->

<svg
   xmlns:dc="http://purl.org/dc/elements/1.1/"
   xmlns:cc="http://creativecommons.org/ns#"
   xmlns:rdf="http://www.w3.org/1999/02/22-rdf-syntax-ns#"
   xmlns:svg="http://www.w3.org/2000/svg"
   xmlns="http://www.w3.org/2000/svg"
   xmlns:sodipodi="http://sodipodi.sourceforge.net/DTD/sodipodi-0.dtd"
   xmlns:inkscape="http://www.inkscape.org/namespaces/inkscape"
   width="210mm"
   height="297mm"
   viewBox="0 0 210 297"
   version="1.1"
   id="svg9532"
   inkscape:version="0.92.3 (2405546, 2018-03-11)"
   sodipodi:docname="the_ltrain_thing.svg">
  <defs
     id="defs9526" />
  <sodipodi:namedview
     id="base"
     pagecolor="#ffffff"
     bordercolor="#666666"
     borderopacity="1.0"
     inkscape:pageopacity="0.0"
     inkscape:pageshadow="2"
     inkscape:zoom="0.35"
     inkscape:cx="-70"
     inkscape:cy="560"
     inkscape:document-units="mm"
     inkscape:current-layer="layer1"
     showgrid="false"
     inkscape:window-width="1920"
     inkscape:window-height="1111"
     inkscape:window-x="-9"
     inkscape:window-y="-9"
     inkscape:window-maximized="1" />
  <metadata
     id="metadata9529">
    <rdf:RDF>
      <cc:Work
         rdf:about="">
        <dc:format>image/svg+xml</dc:format>
        <dc:type
           rdf:resource="http://purl.org/dc/dcmitype/StillImage" />
        <dc:title></dc:title>
      </cc:Work>
    </rdf:RDF>
  </metadata>
  <g
     inkscape:label="Layer 1"
     inkscape:groupmode="layer"
     id="layer1">
    <g
       transform="matrix(0.26458333,0,0,0.26458333,88.457976,-31.231366)"
       id="g1094">
      <path
         style="clip-rule:evenodd;fill-rule:evenodd"
         inkscape:connector-curvature="0"
         d="m 43.754,711.312 0.14,0.409 0.233,0.349 0.292,0.339 0.338,0.291 0.361,0.292 0.409,0.232 0.454,0.234 0.922,0.303 0.909,0.21 0.897,0.059 0.198,-0.035 0.175,-0.023 0.338,-0.058 v -6.601 h 1.819 2.473 9.119 0.269 9.178 2.624 1.399 v 6.658 l 0.338,0.082 0.374,0.034 h 0.104 0.315 l 0.467,-0.058 0.908,-0.175 0.922,-0.351 0.466,-0.198 0.396,-0.269 0.373,-0.279 0.339,-0.292 0.292,-0.339 0.231,-0.349 0.141,-0.408 0.081,-0.396 2.007,-18.716 -1.772,-16.49 -0.151,-0.757 -0.198,-0.688 -0.257,-0.642 -0.339,-0.596 -0.431,-0.559 -0.548,-0.491 -0.63,-0.432 -0.746,-0.372 -0.969,-0.433 -0.897,-0.314 -0.104,-0.035 -1.004,-0.303 -1.003,-0.292 -0.104,-0.023 -1.936,-0.384 -0.688,-0.094 -1.341,-0.198 -2.029,-0.198 -2.041,-0.116 -3.767,-0.141 -0.268,-0.011 -4.069,0.151 -2.041,0.116 -2.007,0.198 -1.002,0.152 -1.026,0.14 -1.003,0.175 -0.443,0.093 -0.56,0.14 -0.967,0.292 -0.806,0.245 -0.198,0.058 -1.004,0.35 -0.979,0.433 -0.746,0.372 -0.629,0.432 -0.537,0.491 -0.432,0.559 -0.35,0.596 -0.28,0.642 -0.176,0.688 -0.139,0.757 -1.772,16.454 1.994,18.693 z m 30.528,-10.763 -0.126,0.373 -0.188,0.326 -0.245,0.291 -0.292,0.245 -0.349,0.187 -0.374,0.117 -0.432,0.046 -0.396,-0.046 -0.386,-0.117 -0.337,-0.187 -0.327,-0.245 -0.245,-0.291 -0.186,-0.326 -0.094,-0.373 -0.058,-0.408 0.058,-0.408 0.094,-0.362 0.186,-0.361 0.245,-0.292 0.327,-0.245 0.337,-0.185 0.386,-0.105 0.396,-0.059 0.432,0.059 0.374,0.105 0.349,0.185 0.292,0.245 0.245,0.292 0.188,0.361 0.126,0.362 0.035,0.408 z m 4.806,0 -0.116,0.373 -0.187,0.326 -0.245,0.291 -0.315,0.245 -0.314,0.187 -0.407,0.117 -0.386,0.046 h -0.023 l -0.396,-0.046 -0.372,-0.117 -0.352,-0.187 -0.29,-0.245 -0.27,-0.291 -0.197,-0.326 -0.094,-0.373 -0.035,-0.408 0.035,-0.408 0.094,-0.362 0.197,-0.361 0.27,-0.292 0.29,-0.245 0.352,-0.185 0.372,-0.105 0.396,-0.059 h 0.023 l 0.386,0.059 0.407,0.105 0.314,0.185 0.315,0.245 0.245,0.292 0.187,0.361 0.116,0.362 0.046,0.408 z m -10.076,-24.186 0.035,-0.245 0.095,-0.268 0.139,-0.246 0.198,-0.245 0.175,-0.187 0.223,-0.162 0.232,-0.106 0.21,-0.034 h 1.959 2.624 2.216 0.537 l 0.384,0.058 0.233,0.083 0.245,0.128 0.269,0.221 0.21,0.279 0.162,0.339 0.082,0.433 1.505,15.159 0.046,0.513 -0.081,0.385 -0.163,0.269 -0.21,0.187 -0.245,0.105 -0.258,0.058 -0.43,0.023 H 77.118 74.902 72.278 70.4 l -0.315,-0.105 -0.291,-0.186 -0.222,-0.187 -0.175,-0.211 -0.256,-0.466 -0.13,-0.385 v -15.207 z m -10.215,-2.926 h 4.303 4.315 v 29.351 H 63.1 58.797 Z m -7.929,27.088 -0.095,0.373 -0.197,0.35 -0.232,0.291 -0.305,0.245 -0.349,0.187 -0.362,0.117 -0.407,0.046 h -0.013 l -0.407,-0.046 -0.386,-0.117 -0.35,-0.187 -0.292,-0.245 -0.231,-0.291 -0.188,-0.35 -0.116,-0.373 -0.047,-0.408 0.047,-0.396 0.116,-0.386 0.188,-0.349 0.231,-0.293 0.292,-0.256 0.35,-0.175 0.386,-0.14 0.407,-0.023 h 0.013 l 0.407,0.023 0.362,0.14 0.349,0.175 0.305,0.256 0.232,0.293 0.197,0.349 0.095,0.386 0.058,0.396 z m 4.769,0 -0.105,0.373 -0.198,0.35 -0.232,0.291 -0.291,0.245 -0.327,0.187 -0.374,0.117 -0.396,0.046 -0.408,-0.046 -0.373,-0.117 -0.351,-0.187 -0.291,-0.245 -0.244,-0.291 -0.175,-0.35 -0.117,-0.373 -0.023,-0.408 0.023,-0.396 0.117,-0.386 0.175,-0.349 0.244,-0.293 0.291,-0.256 0.351,-0.175 0.373,-0.14 0.408,-0.023 0.396,0.023 0.374,0.14 0.327,0.175 0.291,0.256 0.232,0.293 0.198,0.349 0.105,0.386 0.047,0.396 z m -10.227,-9.352 1.644,-14.705 0.105,-0.536 0.175,-0.409 0.222,-0.302 0.245,-0.176 0.21,-0.141 0.152,-0.058 0.139,-0.023 h 0.606 2.332 2.473 1.901 l 0.232,0.023 0.245,0.081 0.245,0.13 0.245,0.163 0.198,0.197 0.163,0.234 0.116,0.244 0.046,0.303 v 15.568 l -0.104,0.291 -0.104,0.245 -0.164,0.187 -0.15,0.187 -0.222,0.141 -0.245,0.104 -0.561,0.187 H 53.712 51.24 48.908 47.242 l -0.352,-0.023 -0.35,-0.082 -0.349,-0.15 -0.305,-0.198 -0.232,-0.269 -0.164,-0.35 -0.104,-0.409 z"
         id="path1084" />
      <rect
         style="clip-rule:evenodd;fill-rule:evenodd"
         x="54.668999"
         y="712.26801"
         width="16.733999"
         height="2.4489999"
         id="rect1086" />
      <path
         style="clip-rule:evenodd;fill-rule:evenodd"
         inkscape:connector-curvature="0"
         d="m 81.269,726.623 -2.368,-2.694 h 5.038 l -2.565,-2.787 h -4.921 l -1.364,-1.632 h -2.577 l 0.979,1.632 H 62.983 52.512 l 0.991,-1.644 -2.508,0.012 -1.41,1.632 h -5.41 l -2.637,2.834 h 5.587 l -2.31,2.647 h -5.458 l -3.626,3.999 5.621,-0.01 -1.471,1.69 h 5.854 l 1.027,-1.69 16.221,-0.024 16.198,-0.023 1.119,1.866 h 6.063 l -1.644,-1.878 h 5.177 l -3.731,-3.93 z m -18.286,0 H 49.177 l 1.61,-2.658 12.196,-0.013 12.197,-0.011 1.622,2.682 z"
         id="path1088" />
      <rect
         style="clip-rule:evenodd;fill-rule:evenodd"
         x="51.124001"
         y="708.104"
         width="2.2969999"
         height="10.764"
         id="rect1090" />
      <rect
         style="clip-rule:evenodd;fill-rule:evenodd"
         x="72.464996"
         y="708.104"
         width="2.296"
         height="10.764"
         id="rect1092" />
    </g>
  </g>
</svg>
