<?xml version="1.0" encoding="UTF-8" standalone="no"?>
<!-- Created with Inkscape (http://www.inkscape.org/) -->

<svg
   xmlns:dc="http://purl.org/dc/elements/1.1/"
   xmlns:cc="http://creativecommons.org/ns#"
   xmlns:rdf="http://www.w3.org/1999/02/22-rdf-syntax-ns#"
   xmlns:svg="http://www.w3.org/2000/svg"
   xmlns="http://www.w3.org/2000/svg"
   xmlns:sodipodi="http://sodipodi.sourceforge.net/DTD/sodipodi-0.dtd"
   xmlns:inkscape="http://www.inkscape.org/namespaces/inkscape"
   id="svg2"
   version="1.1"
   inkscape:version="0.48.5 r10040"
   width="167.995"
   height="25.847357"
   xml:space="preserve"
   sodipodi:docname="NCTD-at-a-Glance-Feb-2015-CURRENT.pdf"><metadata
     id="metadata8"><rdf:RDF><cc:Work
         rdf:about=""><dc:format>image/svg+xml</dc:format><dc:type
           rdf:resource="http://purl.org/dc/dcmitype/StillImage" /><dc:title></dc:title></cc:Work></rdf:RDF></metadata><defs
     id="defs6"><clipPath
       clipPathUnits="userSpaceOnUse"
       id="clipPath16"><path
         d="m 0,12.96 612,0 0,492.48 -612,0 0,-492.48 z"
         id="path18"
         inkscape:connector-curvature="0" /></clipPath><clipPath
       clipPathUnits="userSpaceOnUse"
       id="clipPath496"><path
         d="m 223,430.74 344,0 0,281.06 -344,0 0,-281.06 z"
         id="path498"
         inkscape:connector-curvature="0" /></clipPath><clipPath
       clipPathUnits="userSpaceOnUse"
       id="clipPath596"><path
         d="m 223,430.74 344,0 0,281.06 -344,0 0,-281.06 z"
         id="path598"
         inkscape:connector-curvature="0" /></clipPath><clipPath
       clipPathUnits="userSpaceOnUse"
       id="clipPath988"><path
         d="m 223,430.74 344,0 0,281.06 -344,0 0,-281.06 z"
         id="path990"
         inkscape:connector-curvature="0" /></clipPath><clipPath
       clipPathUnits="userSpaceOnUse"
       id="clipPath1004"><path
         d="m 223,430.74 344,0 0,281.06 -344,0 0,-281.06 z"
         id="path1006"
         inkscape:connector-curvature="0" /></clipPath><clipPath
       clipPathUnits="userSpaceOnUse"
       id="clipPath1020"><path
         d="m 223,430.74 344,0 0,281.06 -344,0 0,-281.06 z"
         id="path1022"
         inkscape:connector-curvature="0" /></clipPath><clipPath
       clipPathUnits="userSpaceOnUse"
       id="clipPath1036"><path
         d="m 223,430.74 344,0 0,281.06 -344,0 0,-281.06 z"
         id="path1038"
         inkscape:connector-curvature="0" /></clipPath><clipPath
       clipPathUnits="userSpaceOnUse"
       id="clipPath1312"><path
         d="m 223,430.74 344,0 0,281.06 -344,0 0,-281.06 z"
         id="path1314"
         inkscape:connector-curvature="0" /></clipPath><clipPath
       clipPathUnits="userSpaceOnUse"
       id="clipPath1486"><path
         d="m 223,430.74 344,0 0,281.06 -344,0 0,-281.06 z"
         id="path1488"
         inkscape:connector-curvature="0" /></clipPath><clipPath
       clipPathUnits="userSpaceOnUse"
       id="clipPath1518"><path
         d="m 223,430.74 344,0 0,281.06 -344,0 0,-281.06 z"
         id="path1520"
         inkscape:connector-curvature="0" /></clipPath><clipPath
       clipPathUnits="userSpaceOnUse"
       id="clipPath1578"><path
         d="m 223,430.74 344,0 0,281.06 -344,0 0,-281.06 z"
         id="path1580"
         inkscape:connector-curvature="0" /></clipPath><clipPath
       clipPathUnits="userSpaceOnUse"
       id="clipPath1614"><path
         d="m 223,430.74 344,0 0,281.06 -344,0 0,-281.06 z"
         id="path1616"
         inkscape:connector-curvature="0" /></clipPath><clipPath
       clipPathUnits="userSpaceOnUse"
       id="clipPath1686"><path
         d="m 223,430.74 344,0 0,281.06 -344,0 0,-281.06 z"
         id="path1688"
         inkscape:connector-curvature="0" /></clipPath><clipPath
       clipPathUnits="userSpaceOnUse"
       id="clipPath1862"><path
         d="m 223,430.74 344,0 0,281.06 -344,0 0,-281.06 z"
         id="path1864"
         inkscape:connector-curvature="0" /></clipPath><clipPath
       clipPathUnits="userSpaceOnUse"
       id="clipPath1950"><path
         d="m 223,430.74 344,0 0,281.06 -344,0 0,-281.06 z"
         id="path1952"
         inkscape:connector-curvature="0" /></clipPath><clipPath
       clipPathUnits="userSpaceOnUse"
       id="clipPath2022"><path
         d="m 223,430.74 344,0 0,281.06 -344,0 0,-281.06 z"
         id="path2024"
         inkscape:connector-curvature="0" /></clipPath><clipPath
       clipPathUnits="userSpaceOnUse"
       id="clipPath2070"><path
         d="m 223,430.74 344,0 0,281.06 -344,0 0,-281.06 z"
         id="path2072"
         inkscape:connector-curvature="0" /></clipPath><clipPath
       clipPathUnits="userSpaceOnUse"
       id="clipPath2098"><path
         d="m 223,430.74 344,0 0,281.06 -344,0 0,-281.06 z"
         id="path2100"
         inkscape:connector-curvature="0" /></clipPath><clipPath
       clipPathUnits="userSpaceOnUse"
       id="clipPath2130"><path
         d="m 223,430.74 344,0 0,281.06 -344,0 0,-281.06 z"
         id="path2132"
         inkscape:connector-curvature="0" /></clipPath><clipPath
       clipPathUnits="userSpaceOnUse"
       id="clipPath2174"><path
         d="m 223,430.74 344,0 0,281.06 -344,0 0,-281.06 z"
         id="path2176"
         inkscape:connector-curvature="0" /></clipPath><clipPath
       clipPathUnits="userSpaceOnUse"
       id="clipPath2202"><path
         d="m 223,430.74 344,0 0,281.06 -344,0 0,-281.06 z"
         id="path2204"
         inkscape:connector-curvature="0" /></clipPath><clipPath
       clipPathUnits="userSpaceOnUse"
       id="clipPath2254"><path
         d="m 223,430.74 344,0 0,281.06 -344,0 0,-281.06 z"
         id="path2256"
         inkscape:connector-curvature="0" /></clipPath><clipPath
       clipPathUnits="userSpaceOnUse"
       id="clipPath2286"><path
         d="m 223,430.74 344,0 0,281.06 -344,0 0,-281.06 z"
         id="path2288"
         inkscape:connector-curvature="0" /></clipPath><clipPath
       clipPathUnits="userSpaceOnUse"
       id="clipPath2306"><path
         d="m 223,430.74 344,0 0,281.06 -344,0 0,-281.06 z"
         id="path2308"
         inkscape:connector-curvature="0" /></clipPath><clipPath
       clipPathUnits="userSpaceOnUse"
       id="clipPath2330"><path
         d="m 223,430.74 344,0 0,281.06 -344,0 0,-281.06 z"
         id="path2332"
         inkscape:connector-curvature="0" /></clipPath><clipPath
       clipPathUnits="userSpaceOnUse"
       id="clipPath2374"><path
         d="m 223,430.74 344,0 0,281.06 -344,0 0,-281.06 z"
         id="path2376"
         inkscape:connector-curvature="0" /></clipPath><clipPath
       clipPathUnits="userSpaceOnUse"
       id="clipPath2390"><path
         d="m 223,430.74 344,0 0,281.06 -344,0 0,-281.06 z"
         id="path2392"
         inkscape:connector-curvature="0" /></clipPath><clipPath
       clipPathUnits="userSpaceOnUse"
       id="clipPath2442"><path
         d="m 223,430.74 344,0 0,281.06 -344,0 0,-281.06 z"
         id="path2444"
         inkscape:connector-curvature="0" /></clipPath><clipPath
       clipPathUnits="userSpaceOnUse"
       id="clipPath2730"><path
         d="m 223,430.74 344,0 0,281.06 -344,0 0,-281.06 z"
         id="path2732"
         inkscape:connector-curvature="0" /></clipPath><clipPath
       clipPathUnits="userSpaceOnUse"
       id="clipPath3062"><path
         d="m 223,430.74 344,0 0,281.06 -344,0 0,-281.06 z"
         id="path3064"
         inkscape:connector-curvature="0" /></clipPath><clipPath
       clipPathUnits="userSpaceOnUse"
       id="clipPath3150"><path
         d="m 223,430.74 344,0 0,281.06 -344,0 0,-281.06 z"
         id="path3152"
         inkscape:connector-curvature="0" /></clipPath><clipPath
       clipPathUnits="userSpaceOnUse"
       id="clipPath3598"><path
         d="m 223,430.74 344,0 0,281.06 -344,0 0,-281.06 z"
         id="path3600"
         inkscape:connector-curvature="0" /></clipPath><clipPath
       clipPathUnits="userSpaceOnUse"
       id="clipPath3658"><path
         d="m 223,430.74 344,0 0,281.06 -344,0 0,-281.06 z"
         id="path3660"
         inkscape:connector-curvature="0" /></clipPath><clipPath
       clipPathUnits="userSpaceOnUse"
       id="clipPath3674"><path
         d="m 223,430.74 344,0 0,281.06 -344,0 0,-281.06 z"
         id="path3676"
         inkscape:connector-curvature="0" /></clipPath><clipPath
       clipPathUnits="userSpaceOnUse"
       id="clipPath3710"><path
         d="m 223,430.74 344,0 0,281.06 -344,0 0,-281.06 z"
         id="path3712"
         inkscape:connector-curvature="0" /></clipPath><clipPath
       clipPathUnits="userSpaceOnUse"
       id="clipPath3910"><path
         d="m 223,430.74 344,0 0,281.06 -344,0 0,-281.06 z"
         id="path3912"
         inkscape:connector-curvature="0" /></clipPath><clipPath
       clipPathUnits="userSpaceOnUse"
       id="clipPath4034"><path
         d="m 223,430.74 344,0 0,281.06 -344,0 0,-281.06 z"
         id="path4036"
         inkscape:connector-curvature="0" /></clipPath><clipPath
       clipPathUnits="userSpaceOnUse"
       id="clipPath4102"><path
         d="m 223,430.74 344,0 0,281.06 -344,0 0,-281.06 z"
         id="path4104"
         inkscape:connector-curvature="0" /></clipPath><clipPath
       clipPathUnits="userSpaceOnUse"
       id="clipPath4130"><path
         d="m 223,430.74 344,0 0,281.06 -344,0 0,-281.06 z"
         id="path4132"
         inkscape:connector-curvature="0" /></clipPath><clipPath
       clipPathUnits="userSpaceOnUse"
       id="clipPath4214"><path
         d="m 223,430.74 344,0 0,281.06 -344,0 0,-281.06 z"
         id="path4216"
         inkscape:connector-curvature="0" /></clipPath><clipPath
       clipPathUnits="userSpaceOnUse"
       id="clipPath4604"><path
         d="m 223,430.74 344,0 0,281.06 -344,0 0,-281.06 z"
         id="path4606"
         inkscape:connector-curvature="0" /></clipPath><clipPath
       clipPathUnits="userSpaceOnUse"
       id="clipPath4654"><path
         d="m 223,430.74 344,0 0,281.06 -344,0 0,-281.06 z"
         id="path4656"
         inkscape:connector-curvature="0" /></clipPath><clipPath
       clipPathUnits="userSpaceOnUse"
       id="clipPath4690"><path
         d="m 223,430.74 344,0 0,281.06 -344,0 0,-281.06 z"
         id="path4692"
         inkscape:connector-curvature="0" /></clipPath><clipPath
       clipPathUnits="userSpaceOnUse"
       id="clipPath4710"><path
         d="m 223,430.74 344,0 0,281.06 -344,0 0,-281.06 z"
         id="path4712"
         inkscape:connector-curvature="0" /></clipPath><clipPath
       clipPathUnits="userSpaceOnUse"
       id="clipPath4730"><path
         d="m 223,430.74 344,0 0,281.06 -344,0 0,-281.06 z"
         id="path4732"
         inkscape:connector-curvature="0" /></clipPath><clipPath
       clipPathUnits="userSpaceOnUse"
       id="clipPath4750"><path
         d="m 223,430.74 344,0 0,281.06 -344,0 0,-281.06 z"
         id="path4752"
         inkscape:connector-curvature="0" /></clipPath><clipPath
       clipPathUnits="userSpaceOnUse"
       id="clipPath4770"><path
         d="m 223,430.74 344,0 0,281.06 -344,0 0,-281.06 z"
         id="path4772"
         inkscape:connector-curvature="0" /></clipPath><clipPath
       clipPathUnits="userSpaceOnUse"
       id="clipPath4790"><path
         d="m 223,430.74 344,0 0,281.06 -344,0 0,-281.06 z"
         id="path4792"
         inkscape:connector-curvature="0" /></clipPath><clipPath
       clipPathUnits="userSpaceOnUse"
       id="clipPath4810"><path
         d="m 223,430.74 344,0 0,281.06 -344,0 0,-281.06 z"
         id="path4812"
         inkscape:connector-curvature="0" /></clipPath><clipPath
       clipPathUnits="userSpaceOnUse"
       id="clipPath4830"><path
         d="m 223,430.74 344,0 0,281.06 -344,0 0,-281.06 z"
         id="path4832"
         inkscape:connector-curvature="0" /></clipPath><clipPath
       clipPathUnits="userSpaceOnUse"
       id="clipPath4862"><path
         d="m 223,430.74 344,0 0,281.06 -344,0 0,-281.06 z"
         id="path4864"
         inkscape:connector-curvature="0" /></clipPath><clipPath
       clipPathUnits="userSpaceOnUse"
       id="clipPath4894"><path
         d="m 223,430.74 344,0 0,281.06 -344,0 0,-281.06 z"
         id="path4896"
         inkscape:connector-curvature="0" /></clipPath><clipPath
       clipPathUnits="userSpaceOnUse"
       id="clipPath4926"><path
         d="m 223,430.74 344,0 0,281.06 -344,0 0,-281.06 z"
         id="path4928"
         inkscape:connector-curvature="0" /></clipPath><clipPath
       clipPathUnits="userSpaceOnUse"
       id="clipPath4934"><path
         d="m 477.847,689.647 82.439,0 0,-63.783 -82.439,0 0,63.783 z"
         id="path4936"
         inkscape:connector-curvature="0" /></clipPath><clipPath
       clipPathUnits="userSpaceOnUse"
       id="clipPath4938"><path
         d="m 477.847,625.864 82.439,0 0,63.783 -82.439,0 0,-63.783 z"
         id="path4940"
         inkscape:connector-curvature="0" /></clipPath><clipPath
       clipPathUnits="userSpaceOnUse"
       id="clipPath4986"><path
         d="m 223,45 166.003,0 0,170.075 -166.003,0 L 223,45 z"
         id="path4988"
         inkscape:connector-curvature="0" /></clipPath><clipPath
       clipPathUnits="userSpaceOnUse"
       id="clipPath5004"><path
         d="m 416.802,114.839 134.396,0 0,42.441 -134.396,0 0,-42.441 z"
         id="path5006"
         inkscape:connector-curvature="0" /></clipPath><clipPath
       clipPathUnits="userSpaceOnUse"
       id="clipPath5190"><path
         d="m 489.52,7.796 77.58,0 0,8.684 -77.58,0 0,-8.684 z"
         id="path5192"
         inkscape:connector-curvature="0" /></clipPath><clipPath
       clipPathUnits="userSpaceOnUse"
       id="clipPath5294"><path
         d="m 404.92,744.951 163.628,0 0,28.805 -163.628,0 0,-28.805 z"
         id="path5296"
         inkscape:connector-curvature="0" /></clipPath><clipPath
       clipPathUnits="userSpaceOnUse"
       id="clipPath5314"><path
         d="m 394.28,736.519 182.88,0 0,46.081 -182.88,0 0,-46.081 z"
         id="path5316"
         inkscape:connector-curvature="0" /></clipPath><clipPath
       clipPathUnits="userSpaceOnUse"
       id="clipPath5362"><path
         d="m 404.92,744.951 163.628,0 0,28.805 -163.628,0 0,-28.805 z"
         id="path5364"
         inkscape:connector-curvature="0" /></clipPath><clipPath
       clipPathUnits="userSpaceOnUse"
       id="clipPath5386"><path
         d="m 394.28,736.519 182.88,0 0,46.081 -182.88,0 0,-46.081 z"
         id="path5388"
         inkscape:connector-curvature="0" /></clipPath><clipPath
       clipPathUnits="userSpaceOnUse"
       id="clipPath5426"><path
         d="m 404.92,744.951 163.628,0 0,28.805 -163.628,0 0,-28.805 z"
         id="path5428"
         inkscape:connector-curvature="0" /></clipPath><clipPath
       clipPathUnits="userSpaceOnUse"
       id="clipPath5450"><path
         d="m 394.28,736.519 182.88,0 0,46.081 -182.88,0 0,-46.081 z"
         id="path5452"
         inkscape:connector-curvature="0" /></clipPath><clipPath
       clipPathUnits="userSpaceOnUse"
       id="clipPath5486"><path
         d="m 404.92,744.951 163.628,0 0,28.805 -163.628,0 0,-28.805 z"
         id="path5488"
         inkscape:connector-curvature="0" /></clipPath><clipPath
       clipPathUnits="userSpaceOnUse"
       id="clipPath5508"><path
         d="m 394.28,736.519 182.88,0 0,46.081 -182.88,0 0,-46.081 z"
         id="path5510"
         inkscape:connector-curvature="0" /></clipPath><clipPath
       clipPathUnits="userSpaceOnUse"
       id="clipPath5574"><path
         d="M 0,0 612,0 612,792 0,792 0,0 z"
         id="path5576"
         inkscape:connector-curvature="0" /></clipPath><clipPath
       clipPathUnits="userSpaceOnUse"
       id="clipPath5582"><path
         d="m 400,187.48 3.44,0 0,-143.48 -3.44,0 0,143.48 z"
         id="path5584"
         inkscape:connector-curvature="0" /></clipPath><linearGradient
       x1="0"
       y1="0"
       x2="1"
       y2="0"
       gradientUnits="userSpaceOnUse"
       gradientTransform="matrix(0,140.99513,140.99513,0,402.16673,45.934692)"
       spreadMethod="pad"
       id="linearGradient5590"><stop
         style="stop-opacity:1;stop-color:#ffffff"
         offset="0"
         id="stop5592" /><stop
         style="stop-opacity:1;stop-color:#808384"
         offset="1"
         id="stop5594" /></linearGradient><clipPath
       clipPathUnits="userSpaceOnUse"
       id="clipPath5614"><path
         d="m 412.28,173.32 186.5,0 0,-3.44 -186.5,0 0,3.44 z"
         id="path5616"
         inkscape:connector-curvature="0" /></clipPath><linearGradient
       x1="0"
       y1="0"
       x2="1"
       y2="0"
       gradientUnits="userSpaceOnUse"
       gradientTransform="matrix(-183.86771,0,0,183.86771,596.56104,172.04674)"
       spreadMethod="pad"
       id="linearGradient5622"><stop
         style="stop-opacity:1;stop-color:#ffffff"
         offset="0"
         id="stop5624" /><stop
         style="stop-opacity:1;stop-color:#808384"
         offset="1"
         id="stop5626" /></linearGradient></defs><sodipodi:namedview
     pagecolor="#ffffff"
     bordercolor="#666666"
     borderopacity="1"
     objecttolerance="10"
     gridtolerance="10"
     guidetolerance="10"
     inkscape:pageopacity="0"
     inkscape:pageshadow="2"
     inkscape:window-width="640"
     inkscape:window-height="480"
     id="namedview4"
     showgrid="false"
     fit-margin-top="0"
     fit-margin-left="0"
     fit-margin-right="0"
     fit-margin-bottom="0"
     inkscape:zoom="2.6970053"
     inkscape:cx="88.116446"
     inkscape:cy="4.7813171"
     inkscape:window-x="0"
     inkscape:window-y="0"
     inkscape:window-maximized="0"
     inkscape:current-layer="g10" /><g
     id="g10"
     inkscape:groupmode="layer"
     inkscape:label="NCTD-at-a-Glance-Feb-2015-CURRENT"
     transform="matrix(1.25,0,0,-1.25,-521.0025,182.99819)"><g
       id="g492"><g
         id="g494"
         clip-path="url(#clipPath496)"><g
           id="g500"
           transform="translate(414.0786,428.8754)"><path
             d="m 0,0 -0.053,-0.054 -0.16,-0.053 0,-0.053 -0.053,0 -0.054,0 0,-0.053 -0.053,0 -0.053,0 -0.586,-0.267 -0.48,-0.266 -0.053,0 -0.053,0 0,-0.053 -0.054,0 -0.053,-0.054 0,0.586 0,0.107 0,0.053 0,0.16 0,0.054 -0.107,0 -0.372,0 -0.373,0 -0.107,0 -0.213,0.053 -0.213,0 -0.267,0 -0.159,0 -0.107,0 -0.586,0 -0.639,0 -0.373,0.053 0,-0.32 0,-0.533 0,-0.213 0,-0.426 -0.053,-0.746 0,-0.213 0.852,0.054 0.426,0.106 0.16,0.053 0.373,0.054 0.906,0.266 0.106,0 0.054,0 0,0.053 0.053,0 0.053,0.054 0.053,0 0.054,0.053 0.106,0.106 0.053,0.107 0.107,0.106 0.053,0.054 0.16,0.106 0.107,0.107 0,0.053 0.053,0 0.053,0.053 0.053,0 0.16,0.107 0.054,0 L 0.107,-0.16 0.053,-0.107 0,0 z"
             style="fill:#f6eb7a;fill-opacity:1;fill-rule:nonzero;stroke:none"
             id="path502"
             inkscape:connector-curvature="0" /></g></g></g><g
       id="g1308"><g
         id="g1310"
         clip-path="url(#clipPath1312)"><g
           id="g1316"
           transform="translate(408.8041,426.8505)"><path
             d="m 0,0 0.053,0.746 0,1.492 0.373,-0.054 1.971,0 0.214,-0.052 0.958,0 0,-0.96 0.054,0.054 0.053,0 0,0.053 0.107,0 0.479,0.267 0.586,0.266 0.107,0 0,0.053 0.107,0 0,0.053 0.159,0.053 0.053,0.054 0.054,-0.107 0.053,-0.053 -1.332,-0.586 -0.053,0 -0.16,-0.107 -0.053,0 -0.053,-0.053 -0.054,0 0,-0.053 L 3.569,0.959 3.41,0.853 3.357,0.799 3.25,0.693 3.197,0.586 3.09,0.48 3.037,0.426 l -0.054,0 -0.053,-0.053 -0.053,0 0,-0.053 -0.16,0 L 1.811,0.054 1.439,0 1.279,-0.053 0.852,-0.16 0,-0.213 0,0 z"
             style="fill:#f6eb7a;fill-opacity:1;fill-rule:nonzero;stroke:none"
             id="path1318"
             inkscape:connector-curvature="0" /></g></g></g><g
       id="g4996"
       transform="matrix(0.3743431,0,0,-0.3694175,522.61487,140.78285)"><path
         d="m -41.684,-15.201 118.034,0 0,55.964 -118.034,0 0,-55.964 z"
         style="fill:#ffffff;fill-opacity:1;fill-rule:nonzero;stroke:none"
         id="path4998"
         inkscape:connector-curvature="0" /></g><g
       id="g5000"><g
         id="g5002"
         clip-path="url(#clipPath5004)"><g
           id="g5008"
           transform="matrix(0.3743431,0,0,-0.3694175,522.61487,140.78285)"><g
             id="g5010"
             transform="translate(-41.685,-10.1915)"><path
               d="m 0,0 c 0,0 100.544,-2.52 118.041,26.262 l 0,-31.272 L 0,-5.01 0,0 z"
               style="fill:#1e59ae;fill-opacity:1;fill-rule:nonzero;stroke:none"
               id="path5012"
               inkscape:connector-curvature="0" /></g></g><g
           id="g5014"
           transform="matrix(0.3743431,0,0,-0.3694175,522.61487,140.78285)"><g
             id="g5016"
             transform="translate(-41.685,-6.2892)"><path
               d="m 0,0 0,47.062 72.9,0 C 72.9,47.062 105.739,4.938 0,0"
               style="fill:#008798;fill-opacity:1;fill-rule:nonzero;stroke:none"
               id="path5018"
               inkscape:connector-curvature="0" /></g></g><g
           id="g5020"
           transform="matrix(0.3743431,0,0,-0.3694175,522.61487,140.78285)"><g
             id="g5022"
             transform="translate(-257.0184,-8.2525)"><path
               d="m 0,0 6.048,0 5.657,9.612 0.184,0 C 11.636,8.164 11.36,6.668 11.36,5.197 l 0,-5.197 6.024,0 0,17.338 -6.024,0 -5.542,-9.106 -0.184,0 c 0.207,1.196 0.391,2.323 0.391,3.473 l 0,5.633 L 0,17.338 0,0 z"
               style="fill:#1e59ae;fill-opacity:1;fill-rule:nonzero;stroke:none"
               id="path5024"
               inkscape:connector-curvature="0" /></g></g><g
           id="g5026"
           transform="matrix(0.3743431,0,0,-0.3694175,522.61487,140.78285)"><g
             id="g5028"
             transform="translate(-231.1449,0.5546)"><path
               d="M 0,0 C 0,1.978 1.334,3.334 3.242,3.334 5.151,3.334 6.485,1.978 6.485,0 6.485,-1.839 5.243,-3.38 3.242,-3.38 1.242,-3.38 0,-1.839 0,0 m 12.831,-0.092 c 0,5.565 -4.3,8.899 -9.589,8.899 -5.288,0 -9.589,-3.334 -9.589,-8.899 0,-5.45 4.324,-8.991 9.589,-8.991 5.266,0 9.589,3.541 9.589,8.991"
               style="fill:#1e59ae;fill-opacity:1;fill-rule:nonzero;stroke:none"
               id="path5030"
               inkscape:connector-curvature="0" /></g></g><g
           id="g5032"
           transform="matrix(0.3743431,0,0,-0.3694175,522.61487,140.78285)"><g
             id="g5034"
             transform="translate(-209.9159,-0.5719)"><path
               d="m 0,0 0.437,0 c 1.035,0 2.069,-0.161 2.069,-1.449 0,-1.334 -0.943,-1.494 -2.023,-1.494 L 0,-2.943 0,0 z m -6.163,-7.681 7.612,0 c 3.909,0 7.22,1.656 7.22,6.025 0,2.622 -1.012,3.725 -3.357,4.507 l 0,0.138 C 5.634,3.242 6.024,3.518 6.37,4.024 l 3.771,5.634 -7.266,0 -2.76,-5.565 -0.115,0 0,5.565 -6.163,0 0,-17.339 z"
               style="fill:#1e59ae;fill-opacity:1;fill-rule:nonzero;stroke:none"
               id="path5036"
               inkscape:connector-curvature="0" /></g></g><g
           id="g5038"
           transform="matrix(0.3743431,0,0,-0.3694175,522.61487,140.78285)"><g
             id="g5040"
             transform="translate(-200.3007,-8.2525)"><path
               d="m 0,0 13.245,0 0,5.634 -3.472,-0.161 0,11.865 -6.301,0 0,-11.865 L 0,5.634 0,0 z"
               style="fill:#1e59ae;fill-opacity:1;fill-rule:nonzero;stroke:none"
               id="path5042"
               inkscape:connector-curvature="0" /></g></g><g
           id="g5044"
           transform="matrix(0.3743431,0,0,-0.3694175,522.61487,140.78285)"><g
             id="g5046"
             transform="translate(-185.3964,-8.2525)"><path
               d="m 0,0 6.069,0 0,5.841 3.865,0 0,-5.841 6.07,0 0,17.338 -6.07,0 0,-6.025 -3.865,0 0,6.025 L 0,17.338 0,0 z"
               style="fill:#1e59ae;fill-opacity:1;fill-rule:nonzero;stroke:none"
               id="path5048"
               inkscape:connector-curvature="0" /></g></g><g
           id="g5050"
           transform="matrix(0.3743431,0,0,-0.3694175,522.61487,140.78285)"><g
             id="g5052"
             transform="translate(-144.139,-1.2159)"><path
               d="m 0,0 c -1.012,-0.943 -2.276,-1.748 -3.702,-1.748 -1.885,0 -3.427,1.495 -3.427,3.381 0,1.908 1.633,3.38 3.52,3.38 1.447,0 2.597,-0.621 3.609,-1.61 l -0.185,6.485 c -1.011,0.483 -3.357,0.69 -4.483,0.69 -4.944,0 -8.808,-3.841 -8.808,-8.785 0,-5.058 3.979,-9.106 9.061,-9.106 1.426,0 2.897,0.253 4.23,0.713 L 0,0 z"
               style="fill:#1e59ae;fill-opacity:1;fill-rule:nonzero;stroke:none"
               id="path5054"
               inkscape:connector-curvature="0" /></g></g><g
           id="g5056"
           transform="matrix(0.3743431,0,0,-0.3694175,522.61487,140.78285)"><g
             id="g5058"
             transform="translate(-136.18,0.5546)"><path
               d="M 0,0 C 0,1.978 1.334,3.334 3.243,3.334 5.151,3.334 6.484,1.978 6.484,0 6.484,-1.839 5.244,-3.38 3.243,-3.38 1.243,-3.38 0,-1.839 0,0 m 12.831,-0.092 c 0,5.565 -4.3,8.899 -9.588,8.899 -5.289,0 -9.59,-3.334 -9.59,-8.899 0,-5.45 4.324,-8.991 9.59,-8.991 5.265,0 9.588,3.541 9.588,8.991"
               style="fill:#1e59ae;fill-opacity:1;fill-rule:nonzero;stroke:none"
               id="path5060"
               inkscape:connector-curvature="0" /></g></g><g
           id="g5062"
           transform="matrix(0.3743431,0,0,-0.3694175,522.61487,140.78285)"><g
             id="g5064"
             transform="translate(-105.155,-8.2525)"><path
               d="m 0,0 0,10.256 c 0,5.059 -3.173,7.358 -8.024,7.358 -4.853,0 -8.026,-2.299 -8.026,-7.358 l 0,-10.256 6.301,0 0,9.658 c 0,1.357 0.046,2.552 1.725,2.552 1.677,0 1.724,-1.195 1.724,-2.552 L -6.3,0 0,0 z"
               style="fill:#1e59ae;fill-opacity:1;fill-rule:nonzero;stroke:none"
               id="path5066"
               inkscape:connector-curvature="0" /></g></g><g
           id="g5068"
           transform="matrix(0.3743431,0,0,-0.3694175,522.61487,140.78285)"><g
             id="g5070"
             transform="translate(-102.48,-8.2525)"><path
               d="m 0,0 6.047,0 5.657,9.612 0.183,0 C 11.634,8.164 11.359,6.668 11.359,5.197 l 0,-5.197 6.024,0 0,17.338 -6.024,0 -5.542,-9.106 -0.184,0 c 0.207,1.196 0.391,2.323 0.391,3.473 l 0,5.633 L 0,17.338 0,0 z"
               style="fill:#1e59ae;fill-opacity:1;fill-rule:nonzero;stroke:none"
               id="path5072"
               inkscape:connector-curvature="0" /></g></g><g
           id="g5074"
           transform="matrix(0.3743431,0,0,-0.3694175,522.61487,140.78285)"><g
             id="g5076"
             transform="translate(-83.529,-8.2525)"><path
               d="m 0,0 13.245,0 0,5.634 -3.472,-0.161 0,11.865 -6.301,0 0,-11.865 L 0,5.634 0,0 z"
               style="fill:#1e59ae;fill-opacity:1;fill-rule:nonzero;stroke:none"
               id="path5078"
               inkscape:connector-curvature="0" /></g></g><g
           id="g5080"
           transform="matrix(0.3743431,0,0,-0.3694175,522.61487,140.78285)"><g
             id="g5082"
             transform="translate(-63.106,-8.2525)"><path
               d="m 0,0 1.931,4.53 0.184,0 C 2.299,3.979 2.461,3.426 2.69,2.897 L 3.932,0 l 7.082,0 -5.932,9.865 0,7.473 -6.163,0 0,-7.473 L -7.128,0 0,0 z"
               style="fill:#1e59ae;fill-opacity:1;fill-rule:nonzero;stroke:none"
               id="path5084"
               inkscape:connector-curvature="0" /></g></g><g
           id="g5086"
           transform="matrix(0.3743431,0,0,-0.3694175,522.61487,140.78285)"><g
             id="g5088"
             transform="translate(-282.663,19.3627)"><path
               d="m 0,0 13.245,0 0,5.642 -3.472,-0.161 0,11.865 -6.301,0 0,-11.865 L 0,5.642 0,0 z"
               style="fill:#1e59ae;fill-opacity:1;fill-rule:nonzero;stroke:none"
               id="path5090"
               inkscape:connector-curvature="0" /></g></g><g
           id="g5092"
           transform="matrix(0.3743431,0,0,-0.3694175,522.61487,140.78285)"><g
             id="g5094"
             transform="translate(-261.5966,27.0512)"><path
               d="m 0,0 0.437,0 c 1.035,0 2.069,-0.161 2.069,-1.449 0,-1.334 -0.943,-1.494 -2.023,-1.494 L 0,-2.943 0,0 z m -6.163,-7.689 7.612,0 c 3.909,0 7.22,1.664 7.22,6.033 0,2.622 -1.012,3.724 -3.357,4.508 l 0,0.137 C 5.634,3.242 6.024,3.517 6.37,4.023 l 3.771,5.635 -7.266,0 -2.76,-5.565 -0.115,0 0,5.565 -6.163,0 0,-17.347 z"
               style="fill:#1e59ae;fill-opacity:1;fill-rule:nonzero;stroke:none"
               id="path5096"
               inkscape:connector-curvature="0" /></g></g><g
           id="g5098"
           transform="matrix(0.3743431,0,0,-0.3694175,522.61487,140.78285)"><g
             id="g5100"
             transform="translate(-241.0814,30.431)"><path
               d="M 0,0 -0.736,-3.058 C -0.92,-3.794 -1.035,-4.553 -1.15,-5.289 l -0.23,0 L -2.53,0 0,0 z m -4.162,6.278 -6.669,0 6.025,-17.346 6.967,0 6.186,17.346 -6.669,0 -0.574,-2.162 -4.76,0 -0.506,2.162 z"
               style="fill:#1e59ae;fill-opacity:1;fill-rule:nonzero;stroke:none"
               id="path5102"
               inkscape:connector-curvature="0" /></g></g><g
           id="g5104"
           transform="matrix(0.3743431,0,0,-0.3694175,522.61487,140.78285)"><g
             id="g5106"
             transform="translate(-231.5116,19.3627)"><path
               d="m 0,0 6.048,0 5.657,9.62 0.184,0 C 11.636,8.172 11.36,6.677 11.36,5.205 l 0,-5.205 6.024,0 0,17.346 -6.024,0 -5.542,-9.107 -0.184,0 c 0.207,1.197 0.391,2.325 0.391,3.474 l 0,5.633 L 0,17.346 0,0 z"
               style="fill:#1e59ae;fill-opacity:1;fill-rule:nonzero;stroke:none"
               id="path5108"
               inkscape:connector-curvature="0" /></g></g><g
           id="g5110"
           transform="matrix(0.3743431,0,0,-0.3694175,522.61487,140.78285)"><g
             id="g5112"
             transform="translate(-210.329,30.5004)"><path
               d="m 0,0 0.322,0.253 c 1.127,0.873 2.483,1.586 3.932,1.586 0.621,0 1.61,-0.253 1.61,-1.034 0,-0.782 -0.828,-0.851 -1.403,-0.966 l -1.265,-0.23 c -2.46,-0.437 -4.529,-1.886 -4.529,-4.599 0,-4.115 3.748,-6.426 7.519,-6.426 1.977,0 3.794,0.487 5.496,1.527 L 9.98,-5.45 c -1.081,-0.736 -2.3,-1.311 -3.656,-1.311 -0.552,0 -1.357,0.206 -1.357,0.92 0,0.644 0.782,0.736 1.264,0.851 l 1.426,0.322 c 2.668,0.598 4.599,2.023 4.599,4.967 0,4.138 -3.771,6.185 -7.519,6.185 -2.185,0 -4.714,-0.597 -6.669,-1.586 L 0,0 z"
               style="fill:#1e59ae;fill-opacity:1;fill-rule:nonzero;stroke:none"
               id="path5114"
               inkscape:connector-curvature="0" /></g></g><g
           id="g5116"
           transform="matrix(0.3743431,0,0,-0.3694175,522.61487,140.78285)"><path
             d="m -196.069,19.363 6.301,0 0,17.346 -6.301,0 0,-17.346 z"
             style="fill:#1e59ae;fill-opacity:1;fill-rule:nonzero;stroke:none"
             id="path5118"
             inkscape:connector-curvature="0" /></g><g
           id="g5120"
           transform="matrix(0.3743431,0,0,-0.3694175,522.61487,140.78285)"><g
             id="g5122"
             transform="translate(-188.0414,19.3627)"><path
               d="m 0,0 13.245,0 0,5.642 -3.472,-0.161 0,11.865 -6.301,0 0,-11.865 L 0,5.642 0,0 z"
               style="fill:#1e59ae;fill-opacity:1;fill-rule:nonzero;stroke:none"
               id="path5124"
               inkscape:connector-curvature="0" /></g></g><g
           id="g5126"
           transform="matrix(0.3743431,0,0,-0.3694175,522.61487,140.78285)"><g
             id="g5128"
             transform="translate(-157.224,31.5121)"><path
               d="M 0,0 0.392,0 C 2.483,0 4.093,-0.966 4.093,-3.242 4.093,-5.68 2.69,-6.715 0.392,-6.715 L 0,-6.715 0,0 z m -6.3,-12.149 6.416,0 c 5.818,0 10.278,2.56 10.278,8.93 0,5.151 -3.632,8.416 -8.714,8.416 l -7.98,0 0,-17.346 z"
               style="fill:#1e59ae;fill-opacity:1;fill-rule:nonzero;stroke:none"
               id="path5130"
               inkscape:connector-curvature="0" /></g></g><g
           id="g5132"
           transform="matrix(0.3743431,0,0,-0.3694175,522.61487,140.78285)"><path
             d="m -144.504,19.363 6.301,0 0,17.346 -6.301,0 0,-17.346 z"
             style="fill:#1e59ae;fill-opacity:1;fill-rule:nonzero;stroke:none"
             id="path5134"
             inkscape:connector-curvature="0" /></g><g
           id="g5136"
           transform="matrix(0.3743431,0,0,-0.3694175,522.61487,140.78285)"><g
             id="g5138"
             transform="translate(-134.245,30.5004)"><path
               d="m 0,0 0.321,0.253 c 1.127,0.873 2.484,1.586 3.933,1.586 0.62,0 1.609,-0.253 1.609,-1.034 0,-0.782 -0.828,-0.851 -1.402,-0.966 l -1.265,-0.23 c -2.461,-0.437 -4.53,-1.886 -4.53,-4.599 0,-4.115 3.748,-6.426 7.52,-6.426 1.977,0 3.793,0.487 5.495,1.527 L 9.979,-5.45 C 8.898,-6.186 7.68,-6.761 6.323,-6.761 c -0.552,0 -1.356,0.206 -1.356,0.92 0,0.644 0.781,0.736 1.264,0.851 l 1.426,0.322 c 2.667,0.598 4.599,2.023 4.599,4.967 0,4.138 -3.772,6.185 -7.52,6.185 -2.184,0 -4.714,-0.597 -6.668,-1.586 L 0,0 z"
               style="fill:#1e59ae;fill-opacity:1;fill-rule:nonzero;stroke:none"
               id="path5140"
               inkscape:connector-curvature="0" /></g></g><g
           id="g5142"
           transform="matrix(0.3743431,0,0,-0.3694175,522.61487,140.78285)"><g
             id="g5144"
             transform="translate(-121.227,19.3627)"><path
               d="m 0,0 13.245,0 0,5.642 -3.473,-0.161 0,11.865 -6.299,0 0,-11.865 L 0,5.642 0,0 z"
               style="fill:#1e59ae;fill-opacity:1;fill-rule:nonzero;stroke:none"
               id="path5146"
               inkscape:connector-curvature="0" /></g></g><g
           id="g5148"
           transform="matrix(0.3743431,0,0,-0.3694175,522.61487,140.78285)"><g
             id="g5150"
             transform="translate(-100.162,27.0512)"><path
               d="m 0,0 0.438,0 c 1.034,0 2.069,-0.161 2.069,-1.449 0,-1.334 -0.943,-1.494 -2.024,-1.494 L 0,-2.943 0,0 z m -6.162,-7.689 7.611,0 c 3.909,0 7.221,1.664 7.221,6.033 0,2.622 -1.012,3.724 -3.357,4.508 l 0,0.137 C 5.634,3.242 6.025,3.517 6.37,4.023 l 3.772,5.635 -7.267,0 -2.76,-5.565 -0.115,0 0,5.565 -6.162,0 0,-17.347 z"
               style="fill:#1e59ae;fill-opacity:1;fill-rule:nonzero;stroke:none"
               id="path5152"
               inkscape:connector-curvature="0" /></g></g><g
           id="g5154"
           transform="matrix(0.3743431,0,0,-0.3694175,522.61487,140.78285)"><path
             d="m -88.867,19.363 6.301,0 0,17.346 -6.301,0 0,-17.346 z"
             style="fill:#1e59ae;fill-opacity:1;fill-rule:nonzero;stroke:none"
             id="path5156"
             inkscape:connector-curvature="0" /></g><g
           id="g5158"
           transform="matrix(0.3743431,0,0,-0.3694175,522.61487,140.78285)"><g
             id="g5160"
             transform="translate(-66.79,26.4066)"><path
               d="m 0,0 c -1.012,-0.942 -2.277,-1.748 -3.702,-1.748 -1.886,0 -3.427,1.496 -3.427,3.381 0,1.908 1.633,3.381 3.519,3.381 1.448,0 2.598,-0.621 3.61,-1.611 l -0.185,6.486 c -1.011,0.482 -3.357,0.689 -4.483,0.689 -4.944,0 -8.808,-3.841 -8.808,-8.785 0,-5.058 3.979,-9.115 9.061,-9.115 1.426,0 2.897,0.255 4.23,0.718 L 0,0 z"
               style="fill:#1e59ae;fill-opacity:1;fill-rule:nonzero;stroke:none"
               id="path5162"
               inkscape:connector-curvature="0" /></g></g><g
           id="g5164"
           transform="matrix(0.3743431,0,0,-0.3694175,522.61487,140.78285)"><g
             id="g5166"
             transform="translate(-65.753,19.3627)"><path
               d="m 0,0 13.245,0 0,5.642 -3.471,-0.161 0,11.865 -6.301,0 0,-11.865 L 0,5.642 0,0 z"
               style="fill:#1e59ae;fill-opacity:1;fill-rule:nonzero;stroke:none"
               id="path5168"
               inkscape:connector-curvature="0" /></g></g></g></g></g></svg>