<?xml version="1.0" encoding="UTF-8" standalone="no"?>
<svg
   xmlns:dc="http://purl.org/dc/elements/1.1/"
   xmlns:cc="http://creativecommons.org/ns#"
   xmlns:rdf="http://www.w3.org/1999/02/22-rdf-syntax-ns#"
   xmlns:svg="http://www.w3.org/2000/svg"
   xmlns="http://www.w3.org/2000/svg"
   xmlns:sodipodi="http://sodipodi.sourceforge.net/DTD/sodipodi-0.dtd"
   xmlns:inkscape="http://www.inkscape.org/namespaces/inkscape"
   width="400"
   height="400"
   version="1.1"
   id="svg4"
   sodipodi:docname="mts_orange.svg"
   inkscape:version="0.92.3 (2405546, 2018-03-11)">
  <metadata
     id="metadata10">
    <rdf:RDF>
      <cc:Work
         rdf:about="">
        <dc:format>image/svg+xml</dc:format>
        <dc:type
           rdf:resource="http://purl.org/dc/dcmitype/StillImage" />
      </cc:Work>
    </rdf:RDF>
  </metadata>
  <defs
     id="defs8" />
  <sodipodi:namedview
     pagecolor="#ffffff"
     bordercolor="#666666"
     borderopacity="1"
     objecttolerance="10"
     gridtolerance="10"
     guidetolerance="10"
     inkscape:pageopacity="0"
     inkscape:pageshadow="2"
     inkscape:window-width="1920"
     inkscape:window-height="1111"
     id="namedview6"
     showgrid="false"
     inkscape:zoom="0.59"
     inkscape:cx="202.54237"
     inkscape:cy="200"
     inkscape:window-x="-9"
     inkscape:window-y="-9"
     inkscape:window-maximized="1"
     inkscape:current-layer="svg4" />
  <path
     d="m118.01 94.85-30.819-49.476 38.039-21.478 26.239 51.779s16.821-6.6762 29.397-7.8665l-2.5113-57.809h43.681l-2.587 57.679s16.017 1.6302 29.965 8.0219l27.093-51.469 37.754 21.969-31.518 48.907s10.921 7.0383 22.177 22.435l49.346-30.639 21.453 38.039-51.366 25.954s6.4181 16.199 8.0483 29.94l57.602-2.4842v43.681l-57.809-2.6136s-1.2421 14.129-8.0988 30.561l50.848 26.68-21.944 37.754-48.416-31.104s-8.6946 11.748-23.417 22.565l30.586 49.088-38.039 21.504-25.49-51.882s-13.015 5.5378-29.084 7.3749l2.5094 58.042h-43.681l2.6142-58.17s-18.035-1.9668-31.077-8.5135l-26.86 51.028-37.755-21.995 31.337-48.597s-9.6262-8.4357-22.46-23.367l-49.373 30.664-21.426-38.064 52.503-25.54s-8.6694-16.406-9.238-31.984l-56.23 6.1586v-43.681l58.273 1.475s1.572-15.448 7.9454-29.137l-51.624-27.068 21.969-37.781 48.907 31.465s11.126-14.465 22.538-22.047"
     fill="#F6821E"
     id="path2"
     style="fill:#ffffff" />
</svg>
