<?xml version="1.0" encoding="UTF-8" standalone="no"?>
<svg
   xmlns:dc="http://purl.org/dc/elements/1.1/"
   xmlns:cc="http://creativecommons.org/ns#"
   xmlns:rdf="http://www.w3.org/1999/02/22-rdf-syntax-ns#"
   xmlns:svg="http://www.w3.org/2000/svg"
   xmlns="http://www.w3.org/2000/svg"
   xmlns:sodipodi="http://sodipodi.sourceforge.net/DTD/sodipodi-0.dtd"
   xmlns:inkscape="http://www.inkscape.org/namespaces/inkscape"
   width="360"
   height="400"
   version="1.1"
   id="svg4"
   sodipodi:docname="mts_green.svg"
   inkscape:version="0.92.3 (2405546, 2018-03-11)">
  <metadata
     id="metadata10">
    <rdf:RDF>
      <cc:Work
         rdf:about="">
        <dc:format>image/svg+xml</dc:format>
        <dc:type
           rdf:resource="http://purl.org/dc/dcmitype/StillImage" />
      </cc:Work>
    </rdf:RDF>
  </metadata>
  <defs
     id="defs8" />
  <sodipodi:namedview
     pagecolor="#ffffff"
     bordercolor="#666666"
     borderopacity="1"
     objecttolerance="10"
     gridtolerance="10"
     guidetolerance="10"
     inkscape:pageopacity="0"
     inkscape:pageshadow="2"
     inkscape:window-width="1920"
     inkscape:window-height="1111"
     id="namedview6"
     showgrid="false"
     inkscape:zoom="0.59"
     inkscape:cx="182.54237"
     inkscape:cy="200"
     inkscape:window-x="-9"
     inkscape:window-y="-9"
     inkscape:window-maximized="1"
     inkscape:current-layer="svg4" />
  <path
     d="m338.36 220.88s-1.8768-64.031-49.408-107.81c17.145 4.002 37.378 7.5839 61.512 10.252 0 0-41.081-53.878-100.94-61.71 17.318-7.2628 38.193-18.552 63.044-36.338 0 0-75.691-26.507-113.09 20.553-34.239-46.962-114.13-34.263-114.13-34.263 21.097 27.249 47.603 42.91 70.998 51.927-100.54 2.7916-146.81 81.349-146.81 81.349 59.461-0.64291 103.16-12.031 134.58-25.74-51.679 60.771-38.217 135.3-38.217 135.3 58.128-28.953 84.61-78.803 96.714-119.49 2.9904 53.039-4.1984 168.5-63.561 255.09h91.921c12.154-59.905 28.014-163.51-1.5378-242.86 18.898 25.915 51.729 53.68 108.92 73.74"
     fill="#04AA4F"
     id="path2"
     style="fill:#ffffff" />
</svg>
