<?xml version="1.0" encoding="UTF-8" standalone="no"?>
<svg
   xmlns:dc="http://purl.org/dc/elements/1.1/"
   xmlns:cc="http://creativecommons.org/ns#"
   xmlns:rdf="http://www.w3.org/1999/02/22-rdf-syntax-ns#"
   xmlns:svg="http://www.w3.org/2000/svg"
   xmlns="http://www.w3.org/2000/svg"
   xmlns:sodipodi="http://sodipodi.sourceforge.net/DTD/sodipodi-0.dtd"
   xmlns:inkscape="http://www.inkscape.org/namespaces/inkscape"
   width="385"
   height="400"
   version="1.1"
   id="svg4"
   sodipodi:docname="mts_silver.svg"
   inkscape:version="0.92.3 (2405546, 2018-03-11)">
  <metadata
     id="metadata10">
    <rdf:RDF>
      <cc:Work
         rdf:about="">
        <dc:format>image/svg+xml</dc:format>
        <dc:type
           rdf:resource="http://purl.org/dc/dcmitype/StillImage" />
      </cc:Work>
    </rdf:RDF>
  </metadata>
  <defs
     id="defs8" />
  <sodipodi:namedview
     pagecolor="#ffffff"
     bordercolor="#666666"
     borderopacity="1"
     objecttolerance="10"
     gridtolerance="10"
     guidetolerance="10"
     inkscape:pageopacity="0"
     inkscape:pageshadow="2"
     inkscape:window-width="1920"
     inkscape:window-height="1111"
     id="namedview6"
     showgrid="false"
     inkscape:zoom="0.59"
     inkscape:cx="195.04237"
     inkscape:cy="200"
     inkscape:window-x="-9"
     inkscape:window-y="-9"
     inkscape:window-maximized="1"
     inkscape:current-layer="svg4" />
  <path
     d="m86.335 254.75s-117.26-94.074 34.47-200.89c0 0 100.56-66.662 254.68-35.624-58.039 20.188-74.381 114.98-74.381 114.98-8.24 59.273-30.709 95.584-30.709 95.584-42.133 82.648-140.96 53.752-140.96 53.752-10.794 67.595-67.35 107.45-67.35 107.45l-52.571-45.897s94.348-9.5034 117.01-135c0 0 9.1196-75.808 63.009-105.94 0 0-53.89 17.359-71.221 75.782 0 0-15.547 60.29-31.971 75.808"
     fill="#949599"
     id="path2"
     style="fill:#000000" />
</svg>
