<?xml version="1.0" encoding="UTF-8" standalone="no"?>
<svg
   xmlns:dc="http://purl.org/dc/elements/1.1/"
   xmlns:cc="http://creativecommons.org/ns#"
   xmlns:rdf="http://www.w3.org/1999/02/22-rdf-syntax-ns#"
   xmlns:svg="http://www.w3.org/2000/svg"
   xmlns="http://www.w3.org/2000/svg"
   xmlns:sodipodi="http://sodipodi.sourceforge.net/DTD/sodipodi-0.dtd"
   xmlns:inkscape="http://www.inkscape.org/namespaces/inkscape"
   width="98.179mm"
   height="71.544mm"
   version="1.1"
   viewBox="0 0 98.179 71.544"
   id="svg6"
   sodipodi:docname="mts_copper.svg"
   inkscape:version="0.92.3 (2405546, 2018-03-11)">
  <metadata
     id="metadata12">
    <rdf:RDF>
      <cc:Work
         rdf:about="">
        <dc:format>image/svg+xml</dc:format>
        <dc:type
           rdf:resource="http://purl.org/dc/dcmitype/StillImage" />
      </cc:Work>
    </rdf:RDF>
  </metadata>
  <defs
     id="defs10" />
  <sodipodi:namedview
     pagecolor="#ffffff"
     bordercolor="#666666"
     borderopacity="1"
     objecttolerance="10"
     gridtolerance="10"
     guidetolerance="10"
     inkscape:pageopacity="0"
     inkscape:pageshadow="2"
     inkscape:window-width="1920"
     inkscape:window-height="1111"
     id="namedview8"
     showgrid="false"
     inkscape:zoom="0.87277295"
     inkscape:cx="187.25378"
     inkscape:cy="135.20126"
     inkscape:window-x="-9"
     inkscape:window-y="-9"
     inkscape:window-maximized="1"
     inkscape:current-layer="svg6" />
  <g
     transform="translate(-45.452 -140.09)"
     id="g4"
     style="fill:#000000">
    <path
       d="m107.27 176.16c-5.7027 0-11.663 2.0316-18.743 6.3966-4.5358 2.7949-8.676 4.2106-12.315 4.2106-3.6721 0-7.041-1.5762-9.9418-4.4526l8.6958-14.297c0.38889-0.69658 0.923-1.0563 1.5823-1.0563 0.70547 0.0199 1.3054 0.47615 1.7404 1.4888 0.25716 0.60096 1.5229 3.3011 1.5362 3.3229 0.2506 0.60091 0.5868 0.67581 0.923 0.67581 0.27025 0 0.65277-0.083 0.88338-0.47615l14.801-24.325c0.38889-0.65289 0.94281-1.0335 1.5362-1.0335 0.5868 0 1.2065 0.50533 1.5163 0.99813l19.574 31.235c-3.9886-1.6073-8.2936-2.6846-11.788-2.6846m36.366 32.247-40.901-65.426c-1.1538-1.8402-2.8481-2.8976-4.6413-2.8976-1.8525 0-3.5733 1.1083-4.727 3.0369l-12.79 21.442c-1.0615-2.164-2.8085-3.4476-4.7402-3.4476-1.7404 0-3.3887 1.0646-4.516 2.9194l-25.863 42.51c6.5334 5.7732 17.84 3.2204 34.724-2.9708 12.342-4.5187 23.582-5.8539 35.99-3.7412-11.168 1.4077-24.69 4.6287-35.522 11.796h20.253c10.219-4.871 27.795-9.7417 42.734-3.2204"
       fill="#B06433"
       stroke-width="6.9543"
       id="path2"
       style="fill:#000000" />
  </g>
</svg>
