<?xml version="1.0" encoding="UTF-8"?>
<svg width="1200pt" height="1200pt" version="1.1" viewBox="0 0 1200 1200" xmlns="http://www.w3.org/2000/svg">
 <path d="m1062.3 461.18c0-193.88 15.07-292.27-46.621-340.85-71.578-56.316-337.7-48.422-418.26-48.422-80.594 0-391.13 2.6641-435.65 48.383-44.016 45.191-49.379 94.945-49.379 432.29 0 3.8398 0.50391 22.32 0.68359 64.105 0 0-4.5 226.5 41.508 298.2 32.016 49.945 286.88 46.199 286.88 46.199l387.64-0.96094c76.129 0 159.7-7.9453 193.39-41.641 46.895-46.895 40.848-377.95 40.848-377.95 0.003906 0.003906-1.0391-27.188-1.0391-79.352zm-881.66 230.65c0-24.926 18.625-45.109 41.566-45.109 22.969 0 41.566 20.184 41.566 45.109 0 24.91-18.602 45.098-41.566 45.098-22.945 0-41.566-20.188-41.566-45.098zm74.914 193.92c-18.168 0-32.891-15.996-32.891-35.711 0-19.727 14.723-35.723 32.891-35.723 18.191 0 32.914 15.996 32.914 35.723 0.015624 19.715-14.711 35.711-32.914 35.711zm316.09-306.02c-45.012 0-319.52 0.70703-347.99 0.70703-28.512 0-47.617-18.227-47.617-38.184 0-19.934-13.922-308.68 40.211-362.8 54.086-54.121 344.7-43.273 355.32-43.273 19.836 0 48.574 20.461 48.574 48.637 0 28.211 0.49219 342.04 0.49219 342.04 0.003907 0.003906-3.957 52.875-48.992 52.875zm349.63 303.69c-18.168 0-32.93-15.984-32.93-35.711 0-19.715 14.762-35.711 32.93-35.711s32.879 15.996 32.879 35.711c0.003906 19.727-14.723 35.711-32.879 35.711zm30.805-147.39c-22.969 0-41.566-20.184-41.566-45.109 0-24.887 18.602-45.07 41.566-45.07 22.934 0 41.566 20.184 41.566 45.07 0.003906 24.926-18.633 45.109-41.566 45.109zm-588.93 242.89-162.21 173.06h94.512l120.8-173.06zm385.15 45.969h-320.33l-21.758 31.031h363.85zm16.523-45.969 118.66 172.1h94.512l-160.07-172.1zm-373.25 109.68-21.816 31.02h439.74l-21.816-31.02z" fill-rule="evenodd"/>
</svg>
