<?xml version="1.0" encoding="UTF-8" standalone="no"?>
<svg
   xmlns:dc="http://purl.org/dc/elements/1.1/"
   xmlns:cc="http://creativecommons.org/ns#"
   xmlns:rdf="http://www.w3.org/1999/02/22-rdf-syntax-ns#"
   xmlns:svg="http://www.w3.org/2000/svg"
   xmlns="http://www.w3.org/2000/svg"
   xmlns:sodipodi="http://sodipodi.sourceforge.net/DTD/sodipodi-0.dtd"
   xmlns:inkscape="http://www.inkscape.org/namespaces/inkscape"
   width="155"
   height="155"
   version="1.1"
   id="svg8"
   sodipodi:docname="the_s_shuttle.svg"
   inkscape:version="0.92.3 (2405546, 2018-03-11)">
  <metadata
     id="metadata14">
    <rdf:RDF>
      <cc:Work
         rdf:about="">
        <dc:format>image/svg+xml</dc:format>
        <dc:type
           rdf:resource="http://purl.org/dc/dcmitype/StillImage" />
      </cc:Work>
    </rdf:RDF>
  </metadata>
  <defs
     id="defs12" />
  <sodipodi:namedview
     pagecolor="#ffffff"
     bordercolor="#666666"
     borderopacity="1"
     objecttolerance="10"
     gridtolerance="10"
     guidetolerance="10"
     inkscape:pageopacity="0"
     inkscape:pageshadow="2"
     inkscape:window-width="1920"
     inkscape:window-height="1111"
     id="namedview10"
     showgrid="false"
     inkscape:zoom="1.5225806"
     inkscape:cx="77.5"
     inkscape:cy="77.5"
     inkscape:window-x="-9"
     inkscape:window-y="-9"
     inkscape:window-maximized="1"
     inkscape:current-layer="svg8" />
  <title
     id="title2">S Shuttle</title>
  <path
     d="M 77.5 2.5 A 75 75 0 0 0 2.5 77.5 A 75 75 0 0 0 77.5 152.5 A 75 75 0 0 0 152.5 77.5 A 75 75 0 0 0 77.5 2.5 z M 77.037109 33.550781 C 87.705595 33.550781 95.724762 35.88928 101.09766 40.566406 C 106.50921 45.243532 109.35052 51.486827 109.62109 59.294922 L 92.458984 60.046875 C 91.72456 55.67898 90.140276 52.54834 87.705078 50.654297 C 85.308534 48.7216 81.693069 47.755859 76.861328 47.755859 C 71.874971 47.755859 67.972128 48.779466 65.150391 50.828125 C 63.333656 52.142358 62.425781 53.902194 62.425781 56.105469 C 62.425781 58.115473 63.275789 59.835429 64.976562 61.265625 C 67.141182 63.08236 72.396844 64.975915 80.746094 66.947266 C 89.095343 68.918616 95.260832 70.967783 99.242188 73.09375 C 103.2622 75.181062 106.39284 78.060298 108.63477 81.732422 C 110.91535 85.365891 112.05664 89.869291 112.05664 95.242188 C 112.05664 100.11258 110.70382 104.67385 107.99805 108.92578 C 105.29227 113.17771 101.46528 116.34628 96.517578 118.43359 C 91.569875 120.48225 85.404386 121.50781 78.021484 121.50781 C 67.275691 121.50781 59.023108 119.03364 53.263672 114.08594 C 47.504236 109.09958 44.064323 101.85262 42.943359 92.34375 L 59.642578 90.71875 C 60.64758 96.32357 62.676808 100.44184 65.730469 103.07031 C 68.822783 105.69878 72.977031 107.01172 78.195312 107.01172 C 83.722825 107.01172 87.879026 105.85244 90.662109 103.5332 C 93.483846 101.17532 94.894531 98.43175 94.894531 95.300781 C 94.894531 93.290777 94.295928 91.588807 93.097656 90.197266 C 91.938038 88.76707 89.888871 87.529984 86.951172 86.486328 C 84.941168 85.790557 80.359962 84.553471 73.208984 82.775391 C 64.009348 80.494809 57.554527 77.693379 53.84375 74.369141 C 48.625469 69.692015 46.015625 63.991409 46.015625 57.265625 C 46.015625 52.936384 47.234725 48.895916 49.669922 45.146484 C 52.143774 41.358399 55.679479 38.479163 60.279297 36.507812 C 64.917769 34.536462 70.504595 33.550781 77.037109 33.550781 z "
     id="circle4" />
</svg>
