<?xml version="1.0" encoding="UTF-8" standalone="no"?>
<svg
   xmlns:dc="http://purl.org/dc/elements/1.1/"
   xmlns:cc="http://creativecommons.org/ns#"
   xmlns:rdf="http://www.w3.org/1999/02/22-rdf-syntax-ns#"
   xmlns:svg="http://www.w3.org/2000/svg"
   xmlns="http://www.w3.org/2000/svg"
   xmlns:sodipodi="http://sodipodi.sourceforge.net/DTD/sodipodi-0.dtd"
   xmlns:inkscape="http://www.inkscape.org/namespaces/inkscape"
   width="155"
   height="155"
   version="1.1"
   id="svg8"
   sodipodi:docname="the_j_church.svg"
   inkscape:version="0.92.3 (2405546, 2018-03-11)">
  <metadata
     id="metadata14">
    <rdf:RDF>
      <cc:Work
         rdf:about="">
        <dc:format>image/svg+xml</dc:format>
        <dc:type
           rdf:resource="http://purl.org/dc/dcmitype/StillImage" />
      </cc:Work>
    </rdf:RDF>
  </metadata>
  <defs
     id="defs12" />
  <sodipodi:namedview
     pagecolor="#ffffff"
     bordercolor="#666666"
     borderopacity="1"
     objecttolerance="10"
     gridtolerance="10"
     guidetolerance="10"
     inkscape:pageopacity="0"
     inkscape:pageshadow="2"
     inkscape:window-width="1920"
     inkscape:window-height="1111"
     id="namedview10"
     showgrid="false"
     inkscape:zoom="1.5225806"
     inkscape:cx="77.5"
     inkscape:cy="77.5"
     inkscape:window-x="-9"
     inkscape:window-y="-9"
     inkscape:window-maximized="1"
     inkscape:current-layer="svg8" />
  <title
     id="title2">J Church</title>
  <path
     d="M 77.5 2.5 A 75 75 0 0 0 2.5 77.5 A 75 75 0 0 0 77.5 152.5 A 75 75 0 0 0 152.5 77.5 A 75 75 0 0 0 77.5 2.5 z M 87.587891 35 L 104.69336 35 L 104.69336 88.806641 C 104.69336 95.841657 104.07482 101.25293 102.83789 105.04102 C 101.17577 109.98872 98.160862 113.96937 93.792969 116.98438 C 89.425074 119.96073 83.664649 121.44922 76.513672 121.44922 C 68.125769 121.44922 61.670948 119.11072 57.148438 114.43359 C 52.625927 109.71781 50.345295 102.81805 50.306641 93.734375 L 66.484375 91.878906 C 66.677645 96.749302 67.39198 100.18922 68.628906 102.19922 C 70.484295 105.25289 73.305665 106.78125 77.09375 106.78125 C 80.920489 106.78125 83.626126 105.69783 85.210938 103.5332 C 86.795749 101.32993 87.587891 96.7886 87.587891 89.908203 L 87.587891 35 z "
     id="circle4"
     style="fill:#ffffff" />
</svg>
