<?xml version="1.0" encoding="UTF-8" standalone="no"?>
<svg
   xmlns:dc="http://purl.org/dc/elements/1.1/"
   xmlns:cc="http://creativecommons.org/ns#"
   xmlns:rdf="http://www.w3.org/1999/02/22-rdf-syntax-ns#"
   xmlns:svg="http://www.w3.org/2000/svg"
   xmlns="http://www.w3.org/2000/svg"
   xmlns:sodipodi="http://sodipodi.sourceforge.net/DTD/sodipodi-0.dtd"
   xmlns:inkscape="http://www.inkscape.org/namespaces/inkscape"
   width="100"
   height="100"
   version="1.1"
   id="svg1981"
   sodipodi:docname="st_four_line.svg"
   inkscape:version="0.92.3 (2405546, 2018-03-11)">
  <metadata
     id="metadata1987">
    <rdf:RDF>
      <cc:Work
         rdf:about="">
        <dc:format>image/svg+xml</dc:format>
        <dc:type
           rdf:resource="http://purl.org/dc/dcmitype/StillImage" />
      </cc:Work>
    </rdf:RDF>
  </metadata>
  <defs
     id="defs1985" />
  <sodipodi:namedview
     pagecolor="#ffffff"
     bordercolor="#666666"
     borderopacity="1"
     objecttolerance="10"
     gridtolerance="10"
     guidetolerance="10"
     inkscape:pageopacity="0"
     inkscape:pageshadow="2"
     inkscape:window-width="1920"
     inkscape:window-height="1111"
     id="namedview1983"
     showgrid="false"
     inkscape:zoom="2.36"
     inkscape:cx="50.635593"
     inkscape:cy="50"
     inkscape:window-x="-9"
     inkscape:window-y="-9"
     inkscape:window-maximized="1"
     inkscape:current-layer="svg1981" />
  <path
     d="M 49.853516 2.5 C 23.701516 2.5 2.5 23.699516 2.5 49.853516 L 2.5 50.146484 C 2.5 76.298484 23.701516 97.5 49.853516 97.5 L 50.144531 97.5 C 76.298531 97.5 97.5 76.298484 97.5 50.146484 L 97.5 49.853516 C 97.5 23.699516 76.298531 2.5 50.144531 2.5 L 49.853516 2.5 z M 47.833984 17.849609 L 63.273438 17.849609 L 63.273438 59.248047 L 70.134766 59.248047 L 70.134766 69.314453 L 63.273438 69.314453 L 63.273438 82 L 50.091797 82 L 50.091797 69.314453 L 26.572266 69.314453 L 26.572266 56.673828 L 47.833984 17.849609 z M 50.453125 32.792969 L 36.683594 59.248047 L 50.453125 59.248047 L 50.453125 32.792969 z "
     id="path1977"
     style="fill:#ffffff" />
</svg>
