<?xml version="1.0" encoding="UTF-8" standalone="no"?>
<svg
   xmlns:dc="http://purl.org/dc/elements/1.1/"
   xmlns:cc="http://creativecommons.org/ns#"
   xmlns:rdf="http://www.w3.org/1999/02/22-rdf-syntax-ns#"
   xmlns:svg="http://www.w3.org/2000/svg"
   xmlns="http://www.w3.org/2000/svg"
   xmlns:sodipodi="http://sodipodi.sourceforge.net/DTD/sodipodi-0.dtd"
   xmlns:inkscape="http://www.inkscape.org/namespaces/inkscape"
   width="100"
   height="100"
   version="1.1"
   id="svg831"
   sodipodi:docname="st_s_line.svg"
   inkscape:version="0.92.3 (2405546, 2018-03-11)">
  <metadata
     id="metadata837">
    <rdf:RDF>
      <cc:Work
         rdf:about="">
        <dc:format>image/svg+xml</dc:format>
        <dc:type
           rdf:resource="http://purl.org/dc/dcmitype/StillImage" />
      </cc:Work>
    </rdf:RDF>
  </metadata>
  <defs
     id="defs835" />
  <sodipodi:namedview
     pagecolor="#ffffff"
     bordercolor="#666666"
     borderopacity="1"
     objecttolerance="10"
     gridtolerance="10"
     guidetolerance="10"
     inkscape:pageopacity="0"
     inkscape:pageshadow="2"
     inkscape:window-width="1920"
     inkscape:window-height="1111"
     id="namedview833"
     showgrid="false"
     inkscape:zoom="9.09"
     inkscape:cx="50.165017"
     inkscape:cy="50"
     inkscape:window-x="-9"
     inkscape:window-y="-9"
     inkscape:window-maximized="1"
     inkscape:current-layer="svg831" />
  <path
     d="M 49.853516 2.5 C 23.699516 2.5 2.5 23.699516 2.5 49.853516 L 2.5 50.146484 C 2.5 76.298484 23.699516 97.5 49.853516 97.5 L 50.144531 97.5 C 76.298531 97.5 97.5 76.298484 97.5 50.146484 L 97.5 49.853516 C 97.5 23.699516 76.298531 2.5 50.144531 2.5 L 49.853516 2.5 z M 52.46875 17.849609 C 54.53585 17.849609 56.675019 18.015589 58.886719 18.349609 C 61.099263 18.684905 63.42772 19.201788 65.873047 19.900391 L 65.044922 31.078125 C 62.861322 30.116835 60.737022 29.389931 58.669922 28.894531 C 56.602822 28.399161 54.680997 28.152344 52.904297 28.152344 C 50.167797 28.152344 48.050981 28.70523 46.550781 29.8125 C 45.051981 30.9183 44.300781 32.476175 44.300781 34.484375 C 44.300781 36.347975 44.927887 37.919872 46.179688 39.201172 C 47.431488 40.482372 49.993334 42.038847 53.865234 43.873047 C 60.327634 46.988447 64.512922 49.841041 66.419922 52.431641 C 68.325722 55.023641 69.279297 58.430291 69.279297 62.650391 C 69.279297 68.618791 67.315566 73.333828 63.384766 76.798828 C 59.455366 80.263728 54.084484 81.996094 47.271484 81.996094 C 44.913884 81.996094 42.439656 81.770762 39.847656 81.320312 C 37.257056 80.868422 34.446922 80.191463 31.419922 79.289062 L 32.511719 68.109375 C 35.131719 69.390675 37.605947 70.336766 39.935547 70.947266 C 42.263747 71.559116 44.504656 71.865234 46.660156 71.865234 C 49.483656 71.865234 51.689591 71.218525 53.275391 69.921875 C 54.862591 68.626575 55.65625 66.829397 55.65625 64.529297 C 55.65625 61.297397 52.350487 58.007056 45.742188 54.660156 C 44.926848 54.251776 44.316603 53.947611 43.908203 53.744141 C 38.668103 51.094641 35.174734 48.532794 33.427734 46.058594 C 31.680534 43.584494 30.808594 40.410862 30.808594 36.539062 C 30.808594 30.716563 32.722481 26.145172 36.550781 22.826172 C 40.379081 19.507272 45.68615 17.849609 52.46875 17.849609 z "
     id="path827" />
</svg>
