<?xml version="1.0" encoding="UTF-8" standalone="no"?>
<svg
   xmlns:dc="http://purl.org/dc/elements/1.1/"
   xmlns:cc="http://creativecommons.org/ns#"
   xmlns:rdf="http://www.w3.org/1999/02/22-rdf-syntax-ns#"
   xmlns:svg="http://www.w3.org/2000/svg"
   xmlns="http://www.w3.org/2000/svg"
   xmlns:sodipodi="http://sodipodi.sourceforge.net/DTD/sodipodi-0.dtd"
   xmlns:inkscape="http://www.inkscape.org/namespaces/inkscape"
   width="100"
   height="100"
   version="1.1"
   id="svg1410"
   sodipodi:docname="st_three_line.svg"
   inkscape:version="0.92.3 (2405546, 2018-03-11)">
  <metadata
     id="metadata1416">
    <rdf:RDF>
      <cc:Work
         rdf:about="">
        <dc:format>image/svg+xml</dc:format>
        <dc:type
           rdf:resource="http://purl.org/dc/dcmitype/StillImage" />
      </cc:Work>
    </rdf:RDF>
  </metadata>
  <defs
     id="defs1414" />
  <sodipodi:namedview
     pagecolor="#ffffff"
     bordercolor="#666666"
     borderopacity="1"
     objecttolerance="10"
     gridtolerance="10"
     guidetolerance="10"
     inkscape:pageopacity="0"
     inkscape:pageshadow="2"
     inkscape:window-width="1920"
     inkscape:window-height="1111"
     id="namedview1412"
     showgrid="false"
     inkscape:zoom="2.36"
     inkscape:cx="50.635593"
     inkscape:cy="50"
     inkscape:window-x="-9"
     inkscape:window-y="-9"
     inkscape:window-maximized="1"
     inkscape:current-layer="svg1410" />
  <path
     d="M 49.710938 2.6445312 C 23.526592 2.6445312 2.3430239 23.958476 2.5019531 50.142578 L 2.5019531 50.433594 C 2.6609831 76.394594 23.750891 97.355469 49.712891 97.355469 L 50.289062 97.355469 C 76.363062 97.355469 97.5 76.219484 97.5 50.146484 L 97.5 49.853516 C 97.5 23.779516 76.363062 2.6445312 50.289062 2.6445312 L 49.710938 2.6445312 z M 50.019531 16.820312 C 56.410331 16.820312 61.316281 18.237819 64.738281 21.074219 C 68.158381 23.909219 69.869141 27.9687 69.869141 33.25 C 69.869141 37.121 68.727919 40.397731 66.449219 43.082031 C 64.168079 45.767307 61.032168 47.530935 57.042969 48.371094 C 61.572969 49.061704 64.992887 50.703628 67.304688 53.298828 C 69.614887 55.894028 70.769531 59.382572 70.769531 63.763672 C 70.769531 69.614672 68.699494 74.272281 64.558594 77.738281 C 60.417694 81.204981 54.837906 82.935547 47.816406 82.935547 C 44.664806 82.935547 41.716603 82.702801 38.970703 82.238281 C 36.226103 81.773771 33.774181 81.106428 31.613281 80.236328 L 32.333984 68.804688 C 34.433184 69.855688 36.556772 70.643169 38.701172 71.167969 C 40.846972 71.694139 43.0302 71.955078 45.25 71.955078 C 48.7304 71.955078 51.415741 71.161162 53.306641 69.570312 C 55.196241 67.980812 56.140625 65.728759 56.140625 62.818359 C 56.140625 59.788759 55.143478 57.574588 53.148438 56.179688 C 51.152037 54.784788 47.996181 54.087891 43.675781 54.087891 L 42.683594 54.087891 C 42.443804 54.087891 41.903013 54.117434 41.064453 54.177734 C 40.643783 54.207934 40.314029 54.236925 40.074219 54.265625 L 40.074219 43.644531 C 40.283869 43.644531 40.621447 43.662606 41.085938 43.691406 C 41.551828 43.721606 41.889969 43.736328 42.099609 43.736328 C 47.231209 43.736328 50.784625 43.111337 52.765625 41.867188 C 54.745625 40.621587 55.736328 38.514222 55.736328 35.544922 C 55.736328 32.904422 54.888349 30.892919 53.193359 29.511719 C 51.496959 28.133219 49.030216 27.441406 45.791016 27.441406 C 43.839816 27.441406 41.874531 27.728778 39.894531 28.298828 C 37.914531 28.868848 35.918303 29.738003 33.908203 30.908203 L 33.097656 19.880859 C 35.587356 18.831259 38.213509 18.059153 40.974609 17.564453 C 43.734309 17.068423 46.748731 16.820312 50.019531 16.820312 z "
     id="path1406"
     style="fill:#ffffff" />
</svg>
