<?xml version="1.0" encoding="UTF-8" standalone="no"?>
<svg
   xmlns:dc="http://purl.org/dc/elements/1.1/"
   xmlns:cc="http://creativecommons.org/ns#"
   xmlns:rdf="http://www.w3.org/1999/02/22-rdf-syntax-ns#"
   xmlns:svg="http://www.w3.org/2000/svg"
   xmlns="http://www.w3.org/2000/svg"
   xmlns:sodipodi="http://sodipodi.sourceforge.net/DTD/sodipodi-0.dtd"
   xmlns:inkscape="http://www.inkscape.org/namespaces/inkscape"
   width="250px"
   height="250px"
   viewBox="0 0 125 125"
   version="1.1"
   id="svg4538"
   sodipodi:docname="mta_sir.svg"
   inkscape:version="0.92.3 (2405546, 2018-03-11)">
  <metadata
     id="metadata4544">
    <rdf:RDF>
      <cc:Work
         rdf:about="">
        <dc:format>image/svg+xml</dc:format>
        <dc:type
           rdf:resource="http://purl.org/dc/dcmitype/StillImage" />
      </cc:Work>
    </rdf:RDF>
  </metadata>
  <defs
     id="defs4542" />
  <sodipodi:namedview
     pagecolor="#ffffff"
     bordercolor="#666666"
     borderopacity="1"
     objecttolerance="10"
     gridtolerance="10"
     guidetolerance="10"
     inkscape:pageopacity="0"
     inkscape:pageshadow="2"
     inkscape:window-width="1920"
     inkscape:window-height="1111"
     id="namedview4540"
     showgrid="false"
     inkscape:zoom="3.704"
     inkscape:cx="125.40497"
     inkscape:cy="125"
     inkscape:window-x="-9"
     inkscape:window-y="-9"
     inkscape:window-maximized="1"
     inkscape:current-layer="svg4538" />
  <title
     id="title4532">NYCS Bullet, Standard Set - Staten Island Railway</title>
  <path
     style="fill:#ffffff;stroke-width:2"
     d="M 125 25 A 100 100 0 0 0 25 125 A 100 100 0 0 0 125 225 A 100 100 0 0 0 225 125 A 100 100 0 0 0 125 25 z M 82.199219 91.199219 C 93.399219 91.199219 102.40078 95.599219 108.80078 104.19922 L 98.599609 112 C 95.399609 105.8 89.799219 102.80078 82.199219 102.80078 C 78.799219 102.80078 76.2 103.39961 74 104.59961 C 71.8 105.79961 70.800781 107.40039 70.800781 109.40039 C 70.800781 112.00039 72.400391 113.8 75.400391 115 C 76.200391 115.4 78.800391 116 83.400391 117 L 91 118.80078 C 96.6 120.20078 100.99961 121.8 103.59961 124 C 107.39961 127 109.19922 131.19961 109.19922 136.59961 C 109.39922 143.59961 106.40039 148.99961 100.40039 152.59961 C 95.400391 155.59961 89.200781 157.19922 81.800781 157.19922 C 76.400781 157.19922 71.199219 155.99961 66.199219 153.59961 C 61.199219 151.19961 57.199219 147.99961 54.199219 143.59961 L 64.599609 136 C 68.999609 142.4 75.200391 145.59961 83.400391 145.59961 C 86.800391 145.59961 89.8 145 92 144 C 94.8 142.6 96.199219 140.6 96.199219 138 C 96.199219 135.8 95.2 134.2 93 133 C 91.4 132.2 88.199609 131.19922 83.599609 130.19922 L 76.599609 128.59961 C 70.599609 127.19961 66.200391 125.39922 63.400391 123.19922 C 59.600391 120.19922 57.599609 116.2 57.599609 111 C 57.599609 104.6 60.199609 99.6 65.599609 96 C 70.199609 92.8 75.799219 91.199219 82.199219 91.199219 z M 118.80078 92.599609 L 131.19922 92.599609 L 131.19922 155.80078 L 118.80078 155.80078 L 118.80078 92.599609 z M 144.80078 92.599609 L 171.19922 92.599609 C 177.79922 92.599609 183.00078 94.4 186.80078 98 C 190.60078 101.4 192.59961 106.20078 192.59961 111.80078 C 192.59961 117.80078 191.00039 122.4 187.40039 126 C 185.80039 127.6 183.40039 129.20039 180.40039 130.40039 L 194.40039 155.80078 L 180 155.80078 L 168 132.80078 L 157.19922 132.80078 L 157.19922 155.80078 L 144.80078 155.80078 L 144.80078 92.599609 z M 157.19922 103.59961 L 157.19922 121.80078 L 169.59961 121.80078 C 172.59961 121.80078 175.00078 120.79922 176.80078 119.19922 C 178.60078 117.59922 179.59961 115.39961 179.59961 112.59961 C 179.59961 106.59961 175.8 103.59961 168 103.59961 L 157.19922 103.59961 z "
     transform="scale(0.5)"
     id="circle4534" />
</svg>
