<?xml version="1.0" encoding="UTF-8" standalone="no"?>
<svg xmlns="http://www.w3.org/2000/svg" width="80.60125" height="80.602501">
  <defs>
    <clipPath id="a" clipPathUnits="userSpaceOnUse">
      <path d="M0 0h1800v2304H0V0z"/>
    </clipPath>
  </defs>
  <g clip-path="url(#a)" transform="matrix(-1.25 0 0 1.25 854.99938 -36.198)">
    <path fill="#ec4025" d="M619.5185 61.1994c0 17.806 14.435 32.241 32.241 32.241 17.806 0 32.24-14.435 32.24-32.241 0-17.806-14.434-32.241-32.24-32.241-17.806 0-32.241 14.435-32.241 32.241"/>
    <path fill="#ec4025" d="M649.6099 73.3783c0 1.187.962 2.149 2.15 2.149 1.187 0 2.149-.962 2.149-2.149s-.962-2.15-2.149-2.15c-1.188 0-2.15.963-2.15 2.15"/>
    <path fill="#fff" d="M636.0544 76.0794c0 2.364 1.934 4.299 4.299 4.299h22.812c2.364 0 4.299-1.935 4.299-4.299v-31.405c0-2.364-1.935-4.299-4.299-4.299h-22.812c-2.365 0-4.299 1.935-4.299 4.299v31.405z"/>
    <path fill="#ec4025" d="M661.7897 64.5889c1.182 0 2.149-.967 2.149-2.149v-16.266c0-1.182-.967-2.149-2.149-2.149h-20.061c-1.182 0-2.149.967-2.149 2.149v16.266c0 1.182.967 2.149 2.149 2.149h20.061z"/>
    <path fill="#fff" d="M641.7287 84.9865c0 .299.245.545.545.545h18.971c.3 0 .545-.246.545-.545v-1.06c0-.3-.245-.545-.545-.545h-18.971c-.3 0-.545.245-.545.545v1.06z"/>
    <path fill="#ec4025" d="M659.9292 70.938c0 1.188.962 2.15 2.149 2.15s2.15-.962 2.15-2.15c0-1.187-.963-2.149-2.15-2.149-1.187 0-2.149.962-2.149 2.149m-20.5392 0c0 1.188.962 2.15 2.149 2.15s2.15-.962 2.15-2.15c0-1.187-.963-2.149-2.15-2.149-1.187 0-2.149.962-2.149 2.149"/>
  </g>
</svg>