<?xml version="1.0" encoding="UTF-8"?>
<svg width="1200pt" height="1200pt" version="1.1" viewBox="0 0 1200 1200" xmlns="http://www.w3.org/2000/svg">
 <g fill="#010101">
  <path d="m166.48 228v48.191h48.191v413.84h770.65v-413.86h48.133v-48.18c-288.96-96.324-577.97-96.324-866.98 0zm289.01 413.83h-192.62v-316.55c64.188-38.508 128.44-38.508 192.62 0-0.003907 38.531-0.003907 316.55-0.003907 316.55zm240.83 0h-192.63v-316.55c64.188-38.508 128.44-38.508 192.64 0-0.003906 38.531-0.003906 316.55-0.003906 316.55zm240.82 0h-192.64v-316.55c64.188-38.508 128.44-38.508 192.64 0v316.55z"/>
  <path d="m214.68 714.64v262.57h770.65l-0.003906-262.57zm385.32 180.17c-26.629 0-48.191-21.562-48.191-48.191 0-26.629 21.551-48.133 48.191-48.133 26.629 0 48.191 21.504 48.191 48.133 0.003906 26.625-21.621 48.191-48.191 48.191z"/>
  <path d="m985.32 1055.5v-48.191h-770.65v48.191h-96.312v48.133h125.21c10.621 0 25.402-6.1094 32.855-13.559l20.953-20.953c6.168-6.168 17.34-11.352 27-13.008 16.68 2.7461 19.176 15.023 4.6445 29.566l-84.156 84.156c-16.633 16.609-11.016 30.168 12.441 30.168h685.38c23.449 0 29.074-13.559 12.457-30.18l-84.168-84.156c-14.531-14.543-12.023-26.809 4.6562-29.566 9.6484 1.6562 20.82 6.8398 26.988 13.008l20.891 20.953c7.5117 7.4531 22.285 13.559 32.914 13.559h125.2v-48.133h-96.297z"/>
  <path d="m359.18 146.4c192.64-24.059 289.01-24.059 481.64 0v-24.059h48.191v-24.098c-192.7-48.191-385.32-48.191-578.02 0v24.098h48.191v24.059z"/>
  <path d="m648.19 46.043c-1.1641-25.605-22.297-46.043-48.195-46.043-25.895 0-47.027 20.438-48.191 46.043 32.137-2.7695 64.262-2.7695 96.387 0z"/>
  <path d="m189.39 446.03c0-10.836-8.7969-19.633-19.668-19.633s-19.609 8.7969-19.609 19.633v458.26c0 10.801 8.7344 19.609 19.609 19.609 10.871 0 19.668-8.7969 19.668-19.609z"/>
  <path d="m1049.9 446.03c0-10.836-8.7969-19.633-19.609-19.633-10.871 0-19.68 8.7969-19.68 19.633v458.26c0 10.801 8.7969 19.609 19.68 19.609 10.801 0 19.609-8.7969 19.609-19.609z"/>
 </g>
</svg>
