<?xml version="1.0" encoding="UTF-8" standalone="no"?>
<!-- Generator: Adobe Illustrator 27.6.1, SVG Export Plug-In . SVG Version: 6.00 Build 0)  -->

<svg
   xmlns:dc="http://purl.org/dc/elements/1.1/"
   xmlns:cc="http://creativecommons.org/ns#"
   xmlns:rdf="http://www.w3.org/1999/02/22-rdf-syntax-ns#"
   xmlns:svg="http://www.w3.org/2000/svg"
   xmlns="http://www.w3.org/2000/svg"
   xmlns:sodipodi="http://sodipodi.sourceforge.net/DTD/sodipodi-0.dtd"
   xmlns:inkscape="http://www.inkscape.org/namespaces/inkscape"
   version="1.1"
   id="Layer_1"
   x="0px"
   y="0px"
   viewBox="0 0 100 100"
   style="enable-background:new 0 0 100 100;"
   xml:space="preserve"
   sodipodi:docname="metro_k.svg"
   inkscape:version="0.92.3 (2405546, 2018-03-11)"><metadata
   id="metadata17"><rdf:RDF><cc:Work
       rdf:about=""><dc:format>image/svg+xml</dc:format><dc:type
         rdf:resource="http://purl.org/dc/dcmitype/StillImage" /></cc:Work></rdf:RDF></metadata><defs
   id="defs15" /><sodipodi:namedview
   pagecolor="#ffffff"
   bordercolor="#666666"
   borderopacity="1"
   objecttolerance="10"
   gridtolerance="10"
   guidetolerance="10"
   inkscape:pageopacity="0"
   inkscape:pageshadow="2"
   inkscape:window-width="1920"
   inkscape:window-height="1111"
   id="namedview13"
   showgrid="false"
   inkscape:zoom="2.36"
   inkscape:cx="50"
   inkscape:cy="50"
   inkscape:window-x="-9"
   inkscape:window-y="-9"
   inkscape:window-maximized="1"
   inkscape:current-layer="art" />
<style
   type="text/css"
   id="style2">
	.st0{fill:none;}
	.st1{fill:#E96BB0;}
</style>
<g
   id="Layer_2_00000065777560113770237640000002392734525623103896_">
	<g
   id="art">
		<rect
   x="-12"
   y="-12"
   class="st0"
   width="123.5"
   height="123.5"
   id="rect4" />
		<path
   d="M 49.75 0.34960938 A 49.400002 49.400002 0 0 0 0.34960938 49.75 A 49.400002 49.400002 0 0 0 49.75 99.150391 A 49.400002 49.400002 0 0 0 99.150391 49.75 A 49.400002 49.400002 0 0 0 49.75 0.34960938 z M 30.240234 21.970703 L 41.089844 21.970703 L 41.089844 46.160156 L 60.759766 21.970703 L 74.029297 21.970703 L 55.599609 44.060547 L 75.339844 77.539062 L 62.630859 77.539062 L 48.349609 52.25 L 41.089844 60.830078 L 41.089844 77.529297 L 30.240234 77.529297 L 30.240234 21.970703 z "
   id="circle6"
   style="fill:#000000" />
		
	</g>
</g>
</svg>