<?xml version="1.0" encoding="UTF-8" standalone="no"?>
<svg
   xmlns:dc="http://purl.org/dc/elements/1.1/"
   xmlns:cc="http://creativecommons.org/ns#"
   xmlns:rdf="http://www.w3.org/1999/02/22-rdf-syntax-ns#"
   xmlns:svg="http://www.w3.org/2000/svg"
   xmlns="http://www.w3.org/2000/svg"
   xmlns:sodipodi="http://sodipodi.sourceforge.net/DTD/sodipodi-0.dtd"
   xmlns:inkscape="http://www.inkscape.org/namespaces/inkscape"
   width="36"
   height="36"
   role="presentation"
   viewBox="0 0 40 40"
   version="1.1"
   id="svg6"
   sodipodi:docname="metro_b.svg"
   inkscape:version="0.92.3 (2405546, 2018-03-11)">
  <metadata
     id="metadata12">
    <rdf:RDF>
      <cc:Work
         rdf:about="">
        <dc:format>image/svg+xml</dc:format>
        <dc:type
           rdf:resource="http://purl.org/dc/dcmitype/StillImage" />
      </cc:Work>
    </rdf:RDF>
  </metadata>
  <defs
     id="defs10" />
  <sodipodi:namedview
     pagecolor="#ffffff"
     bordercolor="#666666"
     borderopacity="1"
     objecttolerance="10"
     gridtolerance="10"
     guidetolerance="10"
     inkscape:pageopacity="0"
     inkscape:pageshadow="2"
     inkscape:window-width="1920"
     inkscape:window-height="1111"
     id="namedview8"
     showgrid="false"
     inkscape:zoom="6.5555556"
     inkscape:cx="-7.0932202"
     inkscape:cy="18"
     inkscape:window-x="-9"
     inkscape:window-y="-9"
     inkscape:window-maximized="1"
     inkscape:current-layer="svg6" />
  <path
     style="fill:#ffffff;stroke-width:0.89999998"
     d="M 18 0 A 18 18 0 0 0 0 18 A 18 18 0 0 0 18 36 A 18 18 0 0 0 36 18 A 18 18 0 0 0 18 0 z M 11.25 7.9199219 L 19.349609 7.9199219 C 23.309609 7.9199219 25.650391 10.169844 25.650391 13.589844 C 25.650391 15.839844 24.210859 17.280469 23.130859 17.730469 C 24.390859 18.270469 25.919922 19.620312 25.919922 22.320312 C 25.919922 26.100313 23.310938 28.169922 19.710938 28.169922 L 11.25 28.169922 L 11.25 7.9199219 z M 15.210938 11.429688 L 15.210938 16.109375 L 19.080078 16.109375 C 20.790078 16.109375 21.689453 15.209531 21.689453 13.769531 C 21.689453 12.419531 20.790078 11.429688 19.080078 11.429688 L 15.210938 11.429688 z M 15.210938 19.619141 L 15.210938 24.570312 L 19.349609 24.570312 C 21.149609 24.570312 21.960938 23.490781 21.960938 22.050781 C 21.960938 20.700781 21.059609 19.619141 19.349609 19.619141 L 15.210938 19.619141 z "
     transform="scale(1.1111111)"
     id="circle2" />
</svg>
