<?xml version="1.0" encoding="UTF-8" standalone="no"?>
<!-- Generator: Adobe Illustrator 27.6.1, SVG Export Plug-In . SVG Version: 6.00 Build 0)  -->

<svg
   xmlns:dc="http://purl.org/dc/elements/1.1/"
   xmlns:cc="http://creativecommons.org/ns#"
   xmlns:rdf="http://www.w3.org/1999/02/22-rdf-syntax-ns#"
   xmlns:svg="http://www.w3.org/2000/svg"
   xmlns="http://www.w3.org/2000/svg"
   xmlns:sodipodi="http://sodipodi.sourceforge.net/DTD/sodipodi-0.dtd"
   xmlns:inkscape="http://www.inkscape.org/namespaces/inkscape"
   version="1.1"
   id="Layer_1"
   x="0px"
   y="0px"
   viewBox="0 0 100 100"
   style="enable-background:new 0 0 100 100;"
   xml:space="preserve"
   sodipodi:docname="metro_e.svg"
   inkscape:version="0.92.3 (2405546, 2018-03-11)"><metadata
   id="metadata18"><rdf:RDF><cc:Work
       rdf:about=""><dc:format>image/svg+xml</dc:format><dc:type
         rdf:resource="http://purl.org/dc/dcmitype/StillImage" /></cc:Work></rdf:RDF></metadata><defs
   id="defs16" /><sodipodi:namedview
   pagecolor="#ffffff"
   bordercolor="#666666"
   borderopacity="1"
   objecttolerance="10"
   gridtolerance="10"
   guidetolerance="10"
   inkscape:pageopacity="0"
   inkscape:pageshadow="2"
   inkscape:window-width="1920"
   inkscape:window-height="1111"
   id="namedview14"
   showgrid="false"
   inkscape:zoom="2.36"
   inkscape:cx="50"
   inkscape:cy="50"
   inkscape:window-x="-9"
   inkscape:window-y="-9"
   inkscape:window-maximized="1"
   inkscape:current-layer="g10" />
<style
   type="text/css"
   id="style2">
	.st0{fill:none;}
	.st1{fill:#F7B618;}
</style>
<g
   id="Layer_2-2">
	<g
   id="g10">
		<rect
   x="-12.21"
   y="-11.44"
   class="st0"
   width="123.76"
   height="123.76"
   id="rect4" />
		<path
   d="M 49.669922 0.93945312 A 49.5 49.5 0 0 0 0.16992188 50.439453 A 49.5 49.5 0 0 0 49.669922 99.939453 A 49.5 49.5 0 0 0 99.169922 50.439453 A 49.5 49.5 0 0 0 49.669922 0.93945312 z M 31.720703 22.609375 L 68.400391 22.609375 L 68.400391 32.300781 L 42.589844 32.300781 L 42.589844 45.359375 L 64.640625 45.359375 L 64.640625 55.060547 L 42.589844 55.060547 L 42.589844 68.589844 L 68.400391 68.589844 L 68.400391 78.289062 L 31.720703 78.289062 L 31.720703 22.609375 z "
   id="circle6"
   style="fill:#000000" />
		
	</g>
</g>
</svg>