<?xml version="1.0" encoding="UTF-8" standalone="no"?>
<svg
   xmlns:dc="http://purl.org/dc/elements/1.1/"
   xmlns:cc="http://creativecommons.org/ns#"
   xmlns:rdf="http://www.w3.org/1999/02/22-rdf-syntax-ns#"
   xmlns:svg="http://www.w3.org/2000/svg"
   xmlns="http://www.w3.org/2000/svg"
   xmlns:sodipodi="http://sodipodi.sourceforge.net/DTD/sodipodi-0.dtd"
   xmlns:inkscape="http://www.inkscape.org/namespaces/inkscape"
   width="36"
   height="36"
   role="presentation"
   viewBox="0 0 40 40"
   version="1.1"
   id="svg6"
   sodipodi:docname="metro_c.svg"
   inkscape:version="0.92.3 (2405546, 2018-03-11)">
  <metadata
     id="metadata12">
    <rdf:RDF>
      <cc:Work
         rdf:about="">
        <dc:format>image/svg+xml</dc:format>
        <dc:type
           rdf:resource="http://purl.org/dc/dcmitype/StillImage" />
      </cc:Work>
    </rdf:RDF>
  </metadata>
  <defs
     id="defs10" />
  <sodipodi:namedview
     pagecolor="#ffffff"
     bordercolor="#666666"
     borderopacity="1"
     objecttolerance="10"
     gridtolerance="10"
     guidetolerance="10"
     inkscape:pageopacity="0"
     inkscape:pageshadow="2"
     inkscape:window-width="1920"
     inkscape:window-height="1111"
     id="namedview8"
     showgrid="false"
     inkscape:zoom="6.5555556"
     inkscape:cx="18"
     inkscape:cy="18"
     inkscape:window-x="-9"
     inkscape:window-y="-9"
     inkscape:window-maximized="1"
     inkscape:current-layer="svg6" />
  <path
     style="fill:#ffffff;stroke-width:0.89999998"
     d="M 18 0 A 18 18 0 0 0 0 18 A 18 18 0 0 0 18 36 A 18 18 0 0 0 36 18 A 18 18 0 0 0 18 0 z M 18.089844 7.7402344 C 21.869844 7.7402344 24.750703 9.9008594 25.470703 14.130859 L 21.419922 14.130859 C 21.059922 12.510859 19.98 11.25 18 11.25 C 16.92 11.25 16.020469 11.610078 15.480469 12.330078 C 14.760469 13.140078 14.490234 14.219844 14.490234 18.089844 C 14.490234 21.959844 14.760469 22.949609 15.480469 23.849609 C 16.020469 24.479609 16.92 24.929688 18 24.929688 C 19.98 24.929688 20.969922 23.670781 21.419922 22.050781 L 25.470703 22.050781 C 24.750703 26.280781 21.869844 28.439453 18.089844 28.439453 C 15.749844 28.439453 14.039453 27.629297 12.689453 26.279297 C 10.709453 24.299297 10.619141 21.959844 10.619141 18.089844 C 10.619141 14.219844 10.619453 11.970391 12.689453 9.9003906 C 14.039453 8.5503906 15.749844 7.7402344 18.089844 7.7402344 z "
     transform="scale(1.1111111)"
     id="circle2" />
</svg>
