<?xml version="1.0" encoding="UTF-8" standalone="no"?>
<svg
   xmlns:dc="http://purl.org/dc/elements/1.1/"
   xmlns:cc="http://creativecommons.org/ns#"
   xmlns:rdf="http://www.w3.org/1999/02/22-rdf-syntax-ns#"
   xmlns:svg="http://www.w3.org/2000/svg"
   xmlns="http://www.w3.org/2000/svg"
   xmlns:sodipodi="http://sodipodi.sourceforge.net/DTD/sodipodi-0.dtd"
   xmlns:inkscape="http://www.inkscape.org/namespaces/inkscape"
   width="100%"
   height="100%"
   viewBox="0 0 493 493"
   version="1.1"
   xml:space="preserve"
   style="fill-rule:evenodd;clip-rule:evenodd;stroke-linejoin:round;stroke-miterlimit:2;"
   id="svg10"
   sodipodi:docname="vta_blue.svg"
   inkscape:version="0.92.3 (2405546, 2018-03-11)"><metadata
   id="metadata16"><rdf:RDF><cc:Work
       rdf:about=""><dc:format>image/svg+xml</dc:format><dc:type
         rdf:resource="http://purl.org/dc/dcmitype/StillImage" /></cc:Work></rdf:RDF></metadata><defs
   id="defs14">
        
    
        
    </defs><sodipodi:namedview
   pagecolor="#ffffff"
   bordercolor="#666666"
   borderopacity="1"
   objecttolerance="10"
   gridtolerance="10"
   guidetolerance="10"
   inkscape:pageopacity="0"
   inkscape:pageshadow="2"
   inkscape:window-width="1920"
   inkscape:window-height="1111"
   id="namedview12"
   showgrid="false"
   inkscape:zoom="0.47870183"
   inkscape:cx="246.5"
   inkscape:cy="246.5"
   inkscape:window-x="-9"
   inkscape:window-y="-9"
   inkscape:window-maximized="1"
   inkscape:current-layer="svg10" />
    <path
   style="fill:#000000;fill-rule:nonzero;stroke-width:8.33333015"
   d="M 246.48047 0.00390625 C 110.34719 0.00390625 -0.00390625 110.31282 -0.00390625 246.49609 C -0.00390625 382.60437 110.34719 492.96289 246.48047 492.96289 C 382.58041 492.96289 493.00391 382.60437 493.00391 246.49609 C 493.00391 110.31282 382.58041 0.00390625 246.48047 0.00390625 z M 135.44727 98.783203 L 274.45703 98.783203 C 330.72368 98.783203 368.78125 116.97502 368.78125 172 C 368.78125 200.97499 354.30624 221.24258 328.65625 233.64258 C 364.6479 244.00091 382.85547 271.70874 382.85547 308.52539 C 382.85547 368.51704 331.9643 394.17578 278.59766 394.17578 L 135.44727 394.17578 L 135.44727 98.783203 z M 200.39844 149.25 L 200.39844 218.3418 L 266.18164 218.3418 C 288.93996 218.3418 305.89844 208.00963 305.89844 183.16797 C 305.89844 155.04298 284.3815 149.25 261.21484 149.25 L 200.39844 149.25 z M 200.39844 262.60938 L 200.39844 343.70117 L 269.89844 343.70117 C 295.55677 343.70117 317.90625 335.41691 317.90625 304.80859 C 317.90625 274.6086 298.8651 262.60938 271.14844 262.60938 L 200.39844 262.60938 z "
   id="path2" />
    
</svg>