<?xml version="1.0" encoding="UTF-8" standalone="no"?>
<svg
   xmlns:dc="http://purl.org/dc/elements/1.1/"
   xmlns:cc="http://creativecommons.org/ns#"
   xmlns:rdf="http://www.w3.org/1999/02/22-rdf-syntax-ns#"
   xmlns:svg="http://www.w3.org/2000/svg"
   xmlns="http://www.w3.org/2000/svg"
   xmlns:sodipodi="http://sodipodi.sourceforge.net/DTD/sodipodi-0.dtd"
   xmlns:inkscape="http://www.inkscape.org/namespaces/inkscape"
   width="100%"
   height="100%"
   viewBox="0 0 493 493"
   version="1.1"
   xml:space="preserve"
   style="fill-rule:evenodd;clip-rule:evenodd;stroke-linejoin:round;stroke-miterlimit:2;"
   id="svg10"
   sodipodi:docname="vta_orange.svg"
   inkscape:version="0.92.3 (2405546, 2018-03-11)"><metadata
   id="metadata16"><rdf:RDF><cc:Work
       rdf:about=""><dc:format>image/svg+xml</dc:format><dc:type
         rdf:resource="http://purl.org/dc/dcmitype/StillImage" /></cc:Work></rdf:RDF></metadata><defs
   id="defs14">
        
    
        
    </defs><sodipodi:namedview
   pagecolor="#ffffff"
   bordercolor="#666666"
   borderopacity="1"
   objecttolerance="10"
   gridtolerance="10"
   guidetolerance="10"
   inkscape:pageopacity="0"
   inkscape:pageshadow="2"
   inkscape:window-width="1920"
   inkscape:window-height="1111"
   id="namedview12"
   showgrid="false"
   inkscape:zoom="0.88"
   inkscape:cx="-6.228621"
   inkscape:cy="246.5"
   inkscape:window-x="-9"
   inkscape:window-y="-9"
   inkscape:window-maximized="1"
   inkscape:current-layer="svg10" />
    <path
   style="fill:#000000;fill-rule:nonzero;stroke-width:8.33333015"
   d="M 246.47461 0 C 110.34133 0 0 110.30891 0 246.49219 C 0 382.60047 110.34133 492.94922 246.47461 492.94922 C 382.57456 492.94922 493 382.60047 493 246.49219 C 493 110.30891 382.57456 0 246.47461 0 z M 246.5 91.748047 C 337.94163 91.748047 391.7168 160.00602 391.7168 247.72266 C 391.7168 332.93929 337.94163 401.20508 246.5 401.20508 C 155.07504 401.20508 101.2832 332.93929 101.2832 247.72266 C 101.2832 160.00602 155.07504 91.748047 246.5 91.748047 z M 246.5 146.35547 C 188.16669 146.35547 166.24219 196.00601 166.24219 247.72266 C 166.24219 296.94764 188.16669 346.59766 246.5 346.59766 C 304.84164 346.59766 326.76758 296.94764 326.76758 247.72266 C 326.76758 196.00601 304.84164 146.35547 246.5 146.35547 z "
   id="path2" />
    
</svg>