<?xml version="1.0" encoding="UTF-8" standalone="no"?>
<svg
   xmlns:dc="http://purl.org/dc/elements/1.1/"
   xmlns:cc="http://creativecommons.org/ns#"
   xmlns:rdf="http://www.w3.org/1999/02/22-rdf-syntax-ns#"
   xmlns:svg="http://www.w3.org/2000/svg"
   xmlns="http://www.w3.org/2000/svg"
   xmlns:sodipodi="http://sodipodi.sourceforge.net/DTD/sodipodi-0.dtd"
   xmlns:inkscape="http://www.inkscape.org/namespaces/inkscape"
   width="250px"
   height="250px"
   viewBox="0 0 125 125"
   version="1.1"
   id="svg864"
   sodipodi:docname="mta_c.svg"
   inkscape:version="0.92.3 (2405546, 2018-03-11)">
  <metadata
     id="metadata870">
    <rdf:RDF>
      <cc:Work
         rdf:about="">
        <dc:format>image/svg+xml</dc:format>
        <dc:type
           rdf:resource="http://purl.org/dc/dcmitype/StillImage" />
      </cc:Work>
    </rdf:RDF>
  </metadata>
  <defs
     id="defs868" />
  <sodipodi:namedview
     pagecolor="#ffffff"
     bordercolor="#666666"
     borderopacity="1"
     objecttolerance="10"
     gridtolerance="10"
     guidetolerance="10"
     inkscape:pageopacity="0"
     inkscape:pageshadow="2"
     inkscape:window-width="1920"
     inkscape:window-height="1111"
     id="namedview866"
     showgrid="false"
     inkscape:zoom="2"
     inkscape:cx="72.151946"
     inkscape:cy="152.42228"
     inkscape:window-x="-9"
     inkscape:window-y="-9"
     inkscape:window-maximized="1"
     inkscape:current-layer="svg864" />
  <title
     id="title858">NYCS Bullet, Standard Set - C Local</title>
  <path
     style="fill:#ffffff;stroke-width:2"
     d="M 125 25 A 100 100 0 0 0 25 125 A 100 100 0 0 0 125 225 A 100 100 0 0 0 225 125 A 100 100 0 0 0 125 25 z M 126.80078 71.400391 C 137.20078 71.400391 145.96561 74.133609 153.09961 79.599609 C 160.23361 85.065609 165.00039 93.065609 167.40039 103.59961 L 148.40039 108.40039 C 147.60039 102.80039 145.19922 98.266781 141.19922 94.800781 C 137.19922 91.334781 132.40078 89.599609 126.80078 89.599609 C 117.73478 89.599609 110.73478 93.200391 105.80078 100.40039 C 101.40078 106.80039 99.199219 114.73322 99.199219 124.19922 C 99.199219 133.66522 101.40078 141.53478 105.80078 147.80078 C 110.73478 155.00078 117.73478 158.59961 126.80078 158.59961 C 138.40078 158.59961 146.33361 151.86639 150.59961 138.40039 L 168.59961 146.59961 C 160.46561 166.86561 146.53478 177 126.80078 177 C 111.46678 177 99.399609 171.73322 90.599609 161.19922 C 82.599609 151.59922 78.599609 139.26522 78.599609 124.19922 C 78.599609 109.39922 82.866391 97.065219 91.400391 87.199219 C 100.33439 76.665219 112.13478 71.400391 126.80078 71.400391 z "
     transform="scale(0.5)"
     id="circle860" />
</svg>
