<?xml version="1.0" encoding="UTF-8" standalone="no"?>
<svg
   xmlns:dc="http://purl.org/dc/elements/1.1/"
   xmlns:cc="http://creativecommons.org/ns#"
   xmlns:rdf="http://www.w3.org/1999/02/22-rdf-syntax-ns#"
   xmlns:svg="http://www.w3.org/2000/svg"
   xmlns="http://www.w3.org/2000/svg"
   xmlns:sodipodi="http://sodipodi.sourceforge.net/DTD/sodipodi-0.dtd"
   xmlns:inkscape="http://www.inkscape.org/namespaces/inkscape"
   width="250px"
   height="250px"
   viewBox="0 0 125 125"
   version="1.1"
   id="svg7156"
   sodipodi:docname="mta_2.svg"
   inkscape:version="0.92.3 (2405546, 2018-03-11)">
  <metadata
     id="metadata7162">
    <rdf:RDF>
      <cc:Work
         rdf:about="">
        <dc:format>image/svg+xml</dc:format>
        <dc:type
           rdf:resource="http://purl.org/dc/dcmitype/StillImage" />
      </cc:Work>
    </rdf:RDF>
  </metadata>
  <defs
     id="defs7160" />
  <sodipodi:namedview
     pagecolor="#ffffff"
     bordercolor="#666666"
     borderopacity="1"
     objecttolerance="10"
     gridtolerance="10"
     guidetolerance="10"
     inkscape:pageopacity="0"
     inkscape:pageshadow="2"
     inkscape:window-width="1920"
     inkscape:window-height="1111"
     id="namedview7158"
     showgrid="false"
     inkscape:zoom="2.6700352"
     inkscape:cx="145.43801"
     inkscape:cy="88.717666"
     inkscape:window-x="-9"
     inkscape:window-y="-9"
     inkscape:window-maximized="1"
     inkscape:current-layer="svg7156" />
  <title
     id="title7150">NYCS Bullet, Standard Set - 2 Local</title>
  <path
     style="fill:#ffffff;stroke-width:2"
     d="M 125 25 A 100 100 0 0 0 25 125 A 100 100 0 0 0 125 225 A 100 100 0 0 0 225 125 A 100 100 0 0 0 125 25 z M 125.40039 71.599609 C 135.00039 71.599609 142.76522 74.465219 148.69922 80.199219 C 154.63322 85.933219 157.59961 93.599219 157.59961 103.19922 C 157.59961 111.19922 155.4 118.66561 151 125.59961 C 147.534 131.06561 142.26522 136.866 135.19922 143 L 116.80078 157.80078 L 159.19922 157.80078 L 159.19922 174.40039 L 90.400391 174.40039 L 90.400391 158 C 100.80039 151.866 110.26678 144.46678 118.80078 135.80078 C 130.26678 124.33478 136 114.00078 136 104.80078 C 136 94.934781 131.73322 90 123.19922 90 C 113.99922 90 109.40039 97.533609 109.40039 112.59961 L 90.400391 111.19922 C 90.400391 84.799219 102.06639 71.599609 125.40039 71.599609 z "
     transform="scale(0.5)"
     id="circle7152" />
</svg>
