<?xml version="1.0" encoding="UTF-8" standalone="no"?>
<svg
   xmlns:dc="http://purl.org/dc/elements/1.1/"
   xmlns:cc="http://creativecommons.org/ns#"
   xmlns:rdf="http://www.w3.org/1999/02/22-rdf-syntax-ns#"
   xmlns:svg="http://www.w3.org/2000/svg"
   xmlns="http://www.w3.org/2000/svg"
   xmlns:sodipodi="http://sodipodi.sourceforge.net/DTD/sodipodi-0.dtd"
   xmlns:inkscape="http://www.inkscape.org/namespaces/inkscape"
   width="250px"
   height="250px"
   viewBox="0 0 125 125"
   version="1.1"
   id="svg13719"
   sodipodi:docname="mta_6x.svg"
   inkscape:version="0.92.3 (2405546, 2018-03-11)">
  <metadata
     id="metadata13725">
    <rdf:RDF>
      <cc:Work
         rdf:about="">
        <dc:format>image/svg+xml</dc:format>
        <dc:type
           rdf:resource="http://purl.org/dc/dcmitype/StillImage" />
      </cc:Work>
    </rdf:RDF>
  </metadata>
  <defs
     id="defs13723" />
  <sodipodi:namedview
     pagecolor="#ffffff"
     bordercolor="#666666"
     borderopacity="1"
     objecttolerance="10"
     gridtolerance="10"
     guidetolerance="10"
     inkscape:pageopacity="0"
     inkscape:pageshadow="2"
     inkscape:window-width="1920"
     inkscape:window-height="1111"
     id="namedview13721"
     showgrid="false"
     inkscape:zoom="3.776"
     inkscape:cx="146.06058"
     inkscape:cy="119.4459"
     inkscape:window-x="-9"
     inkscape:window-y="-9"
     inkscape:window-maximized="1"
     inkscape:current-layer="svg13719" />
  <title
     id="title13713">NYCS Bullet, Standard Set - 6 Express</title>
  <path
     style="fill:#ffffff;stroke-width:2"
     d="M 125 5 L 5 125 L 125 245 L 245 125 L 125 5 z M 126.59961 72 C 144.59961 72 155.00078 80.800391 157.80078 98.400391 L 137.80078 101 C 137.13478 93.266 133.33439 89.400391 126.40039 89.400391 C 120.40039 89.400391 115.86678 92.866781 112.80078 99.800781 C 110.53478 104.86678 109.266 111.20078 109 118.80078 C 113.134 112.66678 119.73478 109.59961 128.80078 109.59961 C 138.13478 109.59961 145.46678 112.66678 150.80078 118.80078 C 156.13478 124.93478 158.80078 133 158.80078 143 C 158.80078 152.6 155.66639 160.56639 149.40039 166.90039 C 143.13439 173.23439 135 176.40039 125 176.40039 C 100.866 176.40039 88.800781 159.79961 88.800781 126.59961 C 88.800781 110.19961 91.933219 97.134391 98.199219 87.400391 C 104.86522 77.134391 114.33361 72 126.59961 72 z M 125 127 C 115.666 127 111 132.334 111 143 C 111 153.666 115.666 159 125 159 C 134.334 159 139 153.666 139 143 C 139 132.334 134.334 127 125 127 z "
     transform="scale(0.5)"
     id="path13715" />
</svg>
