<?xml version="1.0" encoding="UTF-8" standalone="no"?>
<svg
   xmlns:dc="http://purl.org/dc/elements/1.1/"
   xmlns:cc="http://creativecommons.org/ns#"
   xmlns:rdf="http://www.w3.org/1999/02/22-rdf-syntax-ns#"
   xmlns:svg="http://www.w3.org/2000/svg"
   xmlns="http://www.w3.org/2000/svg"
   xmlns:sodipodi="http://sodipodi.sourceforge.net/DTD/sodipodi-0.dtd"
   xmlns:inkscape="http://www.inkscape.org/namespaces/inkscape"
   width="250px"
   height="250px"
   viewBox="0 0 125 125"
   version="1.1"
   id="svg2008"
   sodipodi:docname="mta_g.svg"
   inkscape:version="0.92.3 (2405546, 2018-03-11)">
  <metadata
     id="metadata2014">
    <rdf:RDF>
      <cc:Work
         rdf:about="">
        <dc:format>image/svg+xml</dc:format>
        <dc:type
           rdf:resource="http://purl.org/dc/dcmitype/StillImage" />
      </cc:Work>
    </rdf:RDF>
  </metadata>
  <defs
     id="defs2012" />
  <sodipodi:namedview
     pagecolor="#ffffff"
     bordercolor="#666666"
     borderopacity="1"
     objecttolerance="10"
     gridtolerance="10"
     guidetolerance="10"
     inkscape:pageopacity="0"
     inkscape:pageshadow="2"
     inkscape:window-width="1920"
     inkscape:window-height="1111"
     id="namedview2010"
     showgrid="false"
     inkscape:zoom="0.944"
     inkscape:cx="126.58898"
     inkscape:cy="125"
     inkscape:window-x="-9"
     inkscape:window-y="-9"
     inkscape:window-maximized="1"
     inkscape:current-layer="svg2008" />
  <title
     id="title2002">NYCS Bullet, Standard Set - G Local</title>
  <path
     style="fill:#ffffff;stroke-width:2"
     d="M 125 25 A 100 100 0 0 0 25 125 A 100 100 0 0 0 125 225 A 100 100 0 0 0 225 125 A 100 100 0 0 0 125 25 z M 125 71.400391 C 145.934 71.400391 160.33322 81.400391 168.19922 101.40039 L 149.59961 108.80078 C 146.26561 96.000781 138.066 89.599609 125 89.599609 C 115.934 89.599609 109.06639 93.000781 104.40039 99.800781 C 99.734391 106.60078 97.400391 114.73322 97.400391 124.19922 C 97.400391 133.66522 99.734391 141.766 104.40039 148.5 C 109.06639 155.234 115.934 158.59961 125 158.59961 C 131.666 158.59961 137.43478 156.53439 142.30078 152.40039 C 147.16678 148.26639 149.66678 142.99961 149.80078 136.59961 L 125.19922 136.59961 L 125.19922 119 L 168 119 L 168 174.59961 L 150.80078 174.59961 L 150.80078 166.80078 C 144.00078 173.60078 135.4 177 125 177 C 109.666 177 97.800391 171.96639 89.400391 161.90039 C 81.000391 151.83439 76.800781 139.26522 76.800781 124.19922 C 76.800781 109.39922 81.166391 96.899219 89.900391 86.699219 C 98.634391 76.499219 110.334 71.400391 125 71.400391 z "
     transform="scale(0.5)"
     id="circle2004" />
</svg>
