<?xml version="1.0" encoding="UTF-8" standalone="no"?>
<svg
   xmlns:dc="http://purl.org/dc/elements/1.1/"
   xmlns:cc="http://creativecommons.org/ns#"
   xmlns:rdf="http://www.w3.org/1999/02/22-rdf-syntax-ns#"
   xmlns:svg="http://www.w3.org/2000/svg"
   xmlns="http://www.w3.org/2000/svg"
   xmlns:sodipodi="http://sodipodi.sourceforge.net/DTD/sodipodi-0.dtd"
   xmlns:inkscape="http://www.inkscape.org/namespaces/inkscape"
   width="250px"
   height="250px"
   viewBox="0 0 125 125"
   version="1.1"
   id="svg4868"
   sodipodi:docname="mta_q.svg"
   inkscape:version="0.92.3 (2405546, 2018-03-11)">
  <metadata
     id="metadata4874">
    <rdf:RDF>
      <cc:Work
         rdf:about="">
        <dc:format>image/svg+xml</dc:format>
        <dc:type
           rdf:resource="http://purl.org/dc/dcmitype/StillImage" />
      </cc:Work>
    </rdf:RDF>
  </metadata>
  <defs
     id="defs4872" />
  <sodipodi:namedview
     pagecolor="#ffffff"
     bordercolor="#666666"
     borderopacity="1"
     objecttolerance="10"
     gridtolerance="10"
     guidetolerance="10"
     inkscape:pageopacity="0"
     inkscape:pageshadow="2"
     inkscape:window-width="1920"
     inkscape:window-height="1111"
     id="namedview4870"
     showgrid="false"
     inkscape:zoom="1.888"
     inkscape:cx="142.78683"
     inkscape:cy="91.576555"
     inkscape:window-x="-9"
     inkscape:window-y="-9"
     inkscape:window-maximized="1"
     inkscape:current-layer="svg4868" />
  <title
     id="title4862">NYCS Bullet, Standard Set - Q Local</title>
  <path
     style="fill:#000000;stroke-width:2"
     d="M 125 25 A 100 100 0 0 0 25 125 A 100 100 0 0 0 125 225 A 100 100 0 0 0 225 125 A 100 100 0 0 0 125 25 z M 124.19922 71.800781 C 138.86522 71.800781 150.66561 77.065609 159.59961 87.599609 C 168.13361 97.599609 172.40039 110.00078 172.40039 124.80078 C 172.40039 135.86678 169.79961 145.73439 164.59961 154.40039 C 169.26561 159.33439 175.13322 161.80078 182.19922 161.80078 L 176.59961 180.40039 C 166.99961 177.86639 159.26639 173.53439 153.40039 167.40039 C 145.26639 174.20039 135.53322 177.59961 124.19922 177.59961 C 109.66522 177.59961 97.866781 172.33478 88.800781 161.80078 C 80.266781 151.80078 76 139.46678 76 124.80078 C 76 110.00078 80.266781 97.599609 88.800781 87.599609 C 97.734781 77.065609 109.53322 71.800781 124.19922 71.800781 z M 124.19922 90.199219 C 115.13322 90.199219 108.13322 93.8 103.19922 101 C 98.799219 107.266 96.599609 115.20078 96.599609 124.80078 C 96.599609 134.26678 98.799219 142.13439 103.19922 148.40039 C 108.13322 155.60039 115.13322 159.19922 124.19922 159.19922 C 133.26522 159.19922 140.26522 155.60039 145.19922 148.40039 C 149.59922 142.13439 151.80078 134.26678 151.80078 124.80078 C 151.80078 115.20078 149.59922 107.266 145.19922 101 C 140.26522 93.8 133.26522 90.199219 124.19922 90.199219 z "
     transform="scale(0.5)"
     id="circle4864" />
</svg>
