<?xml version="1.0" encoding="UTF-8" standalone="no"?>
<svg
   xmlns:dc="http://purl.org/dc/elements/1.1/"
   xmlns:cc="http://creativecommons.org/ns#"
   xmlns:rdf="http://www.w3.org/1999/02/22-rdf-syntax-ns#"
   xmlns:svg="http://www.w3.org/2000/svg"
   xmlns="http://www.w3.org/2000/svg"
   xmlns:sodipodi="http://sodipodi.sourceforge.net/DTD/sodipodi-0.dtd"
   xmlns:inkscape="http://www.inkscape.org/namespaces/inkscape"
   width="250px"
   height="250px"
   viewBox="0 0 125 125"
   version="1.1"
   id="svg8"
   sodipodi:docname="mta_d.svg"
   inkscape:version="0.92.3 (2405546, 2018-03-11)">
  <metadata
     id="metadata14">
    <rdf:RDF>
      <cc:Work
         rdf:about="">
        <dc:format>image/svg+xml</dc:format>
        <dc:type
           rdf:resource="http://purl.org/dc/dcmitype/StillImage" />
      </cc:Work>
    </rdf:RDF>
  </metadata>
  <defs
     id="defs12" />
  <sodipodi:namedview
     pagecolor="#ffffff"
     bordercolor="#666666"
     borderopacity="1"
     objecttolerance="10"
     gridtolerance="10"
     guidetolerance="10"
     inkscape:pageopacity="0"
     inkscape:pageshadow="2"
     inkscape:window-width="1920"
     inkscape:window-height="1111"
     id="namedview10"
     showgrid="false"
     inkscape:zoom="1.888"
     inkscape:cx="12.890252"
     inkscape:cy="114.46026"
     inkscape:window-x="-9"
     inkscape:window-y="-9"
     inkscape:window-maximized="1"
     inkscape:current-layer="svg8" />
  <title
     id="title2">NYCS Bullet, Standard Set - D Local</title>
  <path
     style="fill:#ffffff;stroke-width:2"
     d="M 125 25 A 100 100 0 0 0 25 125 A 100 100 0 0 0 125 225 A 100 100 0 0 0 225 125 A 100 100 0 0 0 125 25 z M 88.800781 73.800781 L 124.19922 73.800781 C 140.86522 73.800781 153.466 78.599219 162 88.199219 C 169.734 96.999219 173.59961 108.99922 173.59961 124.19922 C 173.59961 157.79922 158.26561 174.59961 127.59961 174.59961 L 88.800781 174.59961 L 88.800781 73.800781 z M 108.40039 92.199219 L 108.40039 156.19922 L 125 156.19922 C 134.6 156.19922 141.53478 154.06678 145.80078 149.80078 C 150.60078 144.86678 153 136.33322 153 124.19922 C 153 102.86522 143.53361 92.199219 124.59961 92.199219 L 108.40039 92.199219 z "
     transform="scale(0.5)"
     id="circle4" />
</svg>
