<?xml version="1.0" encoding="UTF-8" standalone="no"?>
<svg
   xmlns:dc="http://purl.org/dc/elements/1.1/"
   xmlns:cc="http://creativecommons.org/ns#"
   xmlns:rdf="http://www.w3.org/1999/02/22-rdf-syntax-ns#"
   xmlns:svg="http://www.w3.org/2000/svg"
   xmlns="http://www.w3.org/2000/svg"
   xmlns:sodipodi="http://sodipodi.sourceforge.net/DTD/sodipodi-0.dtd"
   xmlns:inkscape="http://www.inkscape.org/namespaces/inkscape"
   width="250px"
   height="250px"
   viewBox="0 0 125 125"
   version="1.1"
   id="svg6584"
   sodipodi:docname="mta_1.svg"
   inkscape:version="0.92.3 (2405546, 2018-03-11)">
  <metadata
     id="metadata6590">
    <rdf:RDF>
      <cc:Work
         rdf:about="">
        <dc:format>image/svg+xml</dc:format>
        <dc:type
           rdf:resource="http://purl.org/dc/dcmitype/StillImage" />
      </cc:Work>
    </rdf:RDF>
  </metadata>
  <defs
     id="defs6588" />
  <sodipodi:namedview
     pagecolor="#ffffff"
     bordercolor="#666666"
     borderopacity="1"
     objecttolerance="10"
     gridtolerance="10"
     guidetolerance="10"
     inkscape:pageopacity="0"
     inkscape:pageshadow="2"
     inkscape:window-width="1920"
     inkscape:window-height="1111"
     id="namedview6586"
     showgrid="false"
     inkscape:zoom="0.944"
     inkscape:cx="126.58898"
     inkscape:cy="125"
     inkscape:window-x="-9"
     inkscape:window-y="-9"
     inkscape:window-maximized="1"
     inkscape:current-layer="svg6584" />
  <title
     id="title6578">NYCS Bullet, Standard Set - 1 Local</title>
  <path
     style="fill:#ffffff;stroke-width:2"
     d="M 125 25 A 100 100 0 0 0 25 125 A 100 100 0 0 0 125 225 A 100 100 0 0 0 225 125 A 100 100 0 0 0 125 25 z M 121.59961 73.599609 L 137.19922 73.599609 L 137.19922 174.80078 L 118.19922 174.80078 L 118.19922 114.40039 C 118.19922 111.20039 117.86522 109.00078 117.19922 107.80078 C 116.26522 106.06678 113.93322 105.19922 110.19922 105.19922 L 93.800781 105.19922 L 93.800781 92 L 97.400391 92 C 105.53439 92 111.4 90.334 115 87 C 117.934 84.466 120.13361 79.999609 121.59961 73.599609 z "
     transform="scale(0.5)"
     id="circle6580" />
</svg>
