<?xml version="1.0" encoding="UTF-8" standalone="no"?>
<svg
   xmlns:dc="http://purl.org/dc/elements/1.1/"
   xmlns:cc="http://creativecommons.org/ns#"
   xmlns:rdf="http://www.w3.org/1999/02/22-rdf-syntax-ns#"
   xmlns:svg="http://www.w3.org/2000/svg"
   xmlns="http://www.w3.org/2000/svg"
   xmlns:sodipodi="http://sodipodi.sourceforge.net/DTD/sodipodi-0.dtd"
   xmlns:inkscape="http://www.inkscape.org/namespaces/inkscape"
   width="250px"
   height="250px"
   viewBox="0 0 125 125"
   version="1.1"
   id="svg12003"
   sodipodi:docname="mta_4.svg"
   inkscape:version="0.92.3 (2405546, 2018-03-11)">
  <metadata
     id="metadata12009">
    <rdf:RDF>
      <cc:Work
         rdf:about="">
        <dc:format>image/svg+xml</dc:format>
        <dc:type
           rdf:resource="http://purl.org/dc/dcmitype/StillImage" />
      </cc:Work>
    </rdf:RDF>
  </metadata>
  <defs
     id="defs12007" />
  <sodipodi:namedview
     pagecolor="#ffffff"
     bordercolor="#666666"
     borderopacity="1"
     objecttolerance="10"
     gridtolerance="10"
     guidetolerance="10"
     inkscape:pageopacity="0"
     inkscape:pageshadow="2"
     inkscape:window-width="1920"
     inkscape:window-height="1111"
     id="namedview12005"
     showgrid="false"
     inkscape:zoom="2.6700352"
     inkscape:cx="198.18361"
     inkscape:cy="112.60832"
     inkscape:window-x="-9"
     inkscape:window-y="-9"
     inkscape:window-maximized="1"
     inkscape:current-layer="svg12003" />
  <title
     id="title11997">NYCS Bullet, Standard Set - 4 Local</title>
  <path
     style="fill:#ffffff;stroke-width:2"
     d="M 125 25 A 100 100 0 0 0 25 125 A 100 100 0 0 0 125 225 A 100 100 0 0 0 225 125 A 100 100 0 0 0 125 25 z M 126 73.800781 L 145.19922 73.800781 L 145.19922 135.19922 L 157.59961 135.19922 L 157.59961 151.80078 L 145.19922 151.80078 L 145.19922 174.59961 L 126.19922 174.59961 L 126.19922 151.80078 L 82 151.80078 L 82 137.19922 L 126 73.800781 z M 126.72461 95.923828 L 102.19922 135.19922 L 126.19922 135.19922 C 126.19922 110.3922 126.37498 97.30568 126.72461 95.923828 z "
     transform="scale(0.5)"
     id="circle11999" />
</svg>
